<?xml version="1.0" standalone="no"?>
<!DOCTYPE svg PUBLIC "-//W3C//DTD SVG 20010904//EN"
 "http://www.w3.org/TR/2001/REC-SVG-20010904/DTD/svg10.dtd">
<svg version="1.0" xmlns="http://www.w3.org/2000/svg"
 width="700.000000pt" height="393.000000pt" viewBox="0 0 700.000000 393.000000"
 preserveAspectRatio="xMidYMid meet">

<g transform="translate(0.000000,393.000000) scale(0.100000,-0.100000)"
fill="#000000" stroke="none">
<path d="M4947 3919 c8 -8 16 -8 30 0 16 9 14 10 -11 11 -22 0 -27 -3 -19 -11z"/>
<path d="M5023 3918 c2 -7 12 -13 22 -13 10 0 20 6 23 13 2 7 -6 12 -23 12
-17 0 -25 -5 -22 -12z"/>
<path d="M6800 3920 c0 -5 5 -10 10 -10 6 0 10 5 10 10 0 6 -4 10 -10 10 -5 0
-10 -4 -10 -10z"/>
<path d="M6846 3921 c-3 -5 6 -16 20 -26 20 -13 28 -14 40 -4 8 7 30 9 54 6
35 -4 40 -2 40 14 0 17 -8 19 -74 19 -41 0 -77 -4 -80 -9z"/>
<path d="M6785 2763 c-22 -2 -55 -6 -73 -9 l-33 -5 6 -72 c5 -66 4 -74 -18
-99 -14 -14 -42 -35 -63 -46 -79 -39 -93 -49 -126 -88 -18 -22 -38 -39 -44
-37 -7 2 -25 -8 -41 -21 l-30 -26 -24 45 c-17 32 -28 43 -39 39 -34 -15 -58
-15 -71 -2 -11 13 -16 10 -30 -16 -11 -21 -23 -30 -35 -28 -45 8 -100 7 -115
-1 -10 -6 -22 -6 -34 0 -13 8 -22 6 -35 -7 -10 -10 -38 -20 -64 -24 -30 -5
-46 -12 -46 -22 0 -8 -7 -14 -15 -14 -8 0 -15 -4 -15 -10 0 -5 -7 -10 -15 -10
-9 0 -14 -10 -14 -27 1 -42 -7 -81 -20 -96 -6 -8 -7 -17 -3 -22 4 -4 -3 -5
-16 -2 -20 5 -22 3 -10 -11 11 -13 11 -14 -2 -7 -8 5 -39 10 -70 12 -30 1 -59
3 -65 4 -15 2 -106 -11 -115 -16 -17 -10 -40 8 -40 31 0 13 -9 29 -20 36 -11
7 -20 20 -20 29 0 9 -7 19 -15 23 -8 3 -15 15 -15 26 0 14 -6 21 -17 19 -39
-3 -53 2 -53 19 0 24 -31 52 -56 52 -11 0 -25 5 -31 11 -8 8 -17 8 -32 0 -12
-7 -21 -8 -21 -2 0 5 -22 4 -53 -3 -29 -7 -58 -11 -64 -9 -12 4 -53 -68 -53
-95 0 -9 -19 -37 -41 -62 -22 -25 -53 -66 -67 -92 -16 -29 -34 -48 -44 -48
-10 0 -18 -6 -18 -12 0 -10 -2 -10 -9 0 -5 9 -28 13 -67 12 -57 -1 -117 14
-145 36 -8 6 -38 14 -66 17 -29 3 -69 14 -88 23 l-35 16 0 123 c0 67 -4 135
-10 151 -5 16 -11 52 -12 79 l-3 50 -65 0 -65 0 -1 -173 c-1 -207 -3 -210 -83
-193 -29 6 -87 11 -130 11 -70 0 -80 2 -94 23 -8 12 -58 67 -111 122 -77 81
-95 96 -96 78 0 -22 -4 -23 -72 -24 -40 -1 -86 -4 -103 -8 l-30 -6 3 -117 c4
-125 0 -147 -24 -127 -9 7 -40 9 -89 6 l-75 -5 0 137 c0 76 -3 141 -6 144 -7
6 -71 -48 -204 -172 -41 -38 -77 -63 -97 -67 -28 -5 -33 -11 -33 -35 0 -27 -3
-29 -37 -30 -74 -3 -139 3 -168 16 -17 7 -50 12 -73 12 -27 0 -50 7 -63 19
-17 15 -25 16 -49 7 -23 -9 -32 -8 -41 3 -14 17 -71 10 -106 -12 -15 -9 -52
-14 -107 -14 -47 0 -88 -4 -91 -10 -3 -6 -18 -10 -32 -10 l-26 0 8 204 c4 134
3 206 -3 210 -6 3 -37 9 -70 12 l-59 7 -9 -39 c-4 -22 -9 -46 -10 -54 -1 -8
-7 -28 -13 -43 -6 -16 -11 -61 -11 -101 0 -40 -3 -75 -6 -78 -3 -3 -21 -2 -40
3 -19 6 -40 7 -47 2 -6 -4 -37 -8 -68 -8 -69 -2 -111 -25 -158 -85 -18 -25
-43 -48 -55 -51 -11 -3 -79 -4 -150 -2 -71 2 -134 -1 -140 -6 -6 -5 -96 -10
-201 -12 -174 -4 -190 -3 -189 13 2 17 -38 32 -67 26 -9 -2 -15 7 -17 25 -3
26 -6 27 -60 27 -31 0 -100 3 -152 6 -52 3 -126 7 -165 9 -38 2 -128 6 -200 9
-71 3 -183 8 -248 11 l-117 5 0 -181 0 -181 183 7 c100 3 268 8 372 9 182 3
191 2 207 -18 9 -11 20 -18 24 -14 4 4 1 14 -6 23 -10 12 -10 15 4 15 9 0 16
-8 16 -20 0 -26 30 -27 37 -1 7 26 41 31 199 31 112 0 134 -3 142 -16 8 -15
10 -15 15 0 4 9 12 16 18 16 8 0 8 -4 -1 -15 -10 -12 -10 -15 3 -15 9 0 19 5
22 10 4 6 12 7 18 3 7 -5 48 -9 92 -10 44 -1 95 -2 113 -2 17 -1 32 -5 32 -9
0 -5 -40 -8 -90 -8 -49 1 -90 -2 -90 -6 0 -5 -5 -8 -11 -8 -5 0 -7 4 -4 10 4
6 -21 10 -69 10 -50 0 -76 4 -80 13 -4 9 -8 9 -11 1 -7 -13 -45 -7 -45 7 0 5
-9 9 -21 9 -19 0 -19 -1 -4 -16 24 -25 5 -36 -67 -38 -90 -4 -98 -5 -98 -15 0
-9 229 -7 437 3 46 3 85 0 89 -5 3 -5 10 -7 15 -3 5 3 7 9 4 14 -3 4 18 6 46
3 34 -3 49 -1 44 6 -3 6 -13 11 -21 11 -8 0 -14 4 -14 9 0 13 25 20 47 15 10
-3 29 -1 43 5 14 5 19 10 12 10 -7 1 -10 6 -7 11 12 20 22 9 39 -47 17 -55 44
-93 65 -93 5 0 11 -7 15 -15 3 -9 0 -15 -9 -15 -24 0 -17 -20 8 -21 21 -1 21
-1 -3 -8 -31 -10 -41 -5 -33 16 5 13 2 15 -12 10 -9 -4 -24 -2 -32 5 -9 7 -17
8 -21 2 -4 -5 -13 -9 -19 -10 -29 -2 -32 -5 -26 -21 4 -10 2 -14 -5 -9 -6 3
-13 2 -17 -4 -8 -13 -152 -13 -160 0 -4 7 23 9 77 8 68 -3 83 0 83 12 0 13
-23 15 -148 15 -147 0 -180 -6 -135 -25 18 -7 12 -8 -22 -4 -33 4 -41 3 -30
-5 12 -8 7 -11 -22 -11 -20 0 -43 6 -50 14 -12 11 -20 11 -44 2 -16 -7 -50
-13 -76 -14 -37 -2 -47 2 -51 15 -4 16 -5 16 -6 -1 -1 -16 -3 -17 -17 -5 -20
16 -54 22 -54 9 0 -6 5 -10 11 -10 6 0 1 -9 -12 -19 -13 -11 -25 -15 -27 -10
-2 5 -13 9 -23 9 -11 0 -18 4 -14 9 15 25 -90 34 -106 9 -9 -14 -79 -22 -79
-9 0 6 16 11 35 11 39 0 45 12 15 33 -21 14 -66 12 -76 -4 -8 -14 -34 -11 -31
4 1 9 -13 11 -51 9 -30 -2 -59 1 -67 8 -9 7 -15 8 -20 0 -3 -5 -17 -10 -30
-10 -13 0 -27 -5 -30 -10 -4 -6 -11 -8 -16 -4 -5 3 -7 9 -4 14 3 5 0 12 -6 16
-6 3 -14 2 -18 -4 -4 -6 -51 -14 -106 -17 -55 -3 -108 -8 -117 -11 -18 -5 -82
12 -104 28 -8 6 -12 -4 -12 -32 -1 -28 3 -40 14 -40 8 0 14 -5 14 -11 0 -6 -7
-9 -15 -5 -8 3 -15 1 -15 -4 0 -13 57 -13 65 0 4 6 11 7 17 4 6 -4 14 -1 18 6
5 8 15 10 26 5 17 -8 17 -9 -3 -12 -13 -3 -23 -9 -23 -15 0 -5 -7 -8 -15 -5
-8 4 -17 2 -20 -3 -4 -6 -21 -10 -38 -10 -24 0 -28 -3 -17 -10 10 -6 11 -10 3
-10 -8 0 -13 -13 -13 -30 0 -29 2 -30 44 -30 25 0 100 4 168 9 68 5 197 15
288 21 91 6 216 15 279 21 62 5 224 14 360 19 135 6 318 15 406 21 88 6 256
13 373 15 183 4 217 2 247 -12 40 -19 133 -13 151 11 8 11 32 17 104 24 3 0
139 3 302 6 l297 6 6 -23 c4 -18 1 -402 -4 -441 -1 -4 -45 -5 -98 -2 -255 14
-412 26 -453 34 -25 6 -79 13 -120 16 -97 8 -182 29 -152 37 19 5 22 14 24 70
1 34 2 73 2 86 1 28 21 42 64 42 25 0 32 4 32 20 0 18 7 20 60 20 33 0 60 4
60 9 0 6 -21 8 -47 7 -27 -2 -142 -9 -258 -15 -115 -7 -230 -16 -255 -21 -25
-5 -79 -9 -120 -10 -41 0 -90 -4 -109 -10 -19 -5 -37 -8 -40 -6 -3 2 -6 -12
-5 -32 0 -21 -3 -42 -8 -48 -5 -7 4 -29 22 -55 16 -24 30 -50 30 -57 0 -8 9
-25 20 -39 11 -14 20 -36 20 -48 0 -14 18 -42 45 -69 35 -37 51 -46 78 -46 18
0 38 -5 45 -12 9 -9 17 -9 36 1 18 10 29 10 45 2 14 -8 21 -8 21 -1 0 5 5 10
10 10 6 0 10 -6 10 -13 0 -7 10 -21 21 -31 20 -16 21 -24 14 -85 -9 -84 -8
-97 7 -211 l13 -94 40 -1 c28 0 39 4 37 13 -1 8 2 11 8 7 6 -4 23 -4 39 0 27
6 28 9 36 83 4 42 7 99 6 127 -2 81 2 85 57 70 102 -27 147 -36 206 -41 33 -3
75 -10 91 -15 17 -5 77 -13 135 -19 58 -6 114 -12 125 -14 11 -2 60 -4 108 -5
l88 -1 -2 -145 -1 -145 -24 6 c-17 4 -24 2 -24 -9 0 -8 -7 -17 -15 -20 -12 -5
-12 -2 -3 18 6 14 17 25 24 25 7 0 16 5 20 12 11 17 -58 1 -72 -17 -6 -8 -17
-15 -24 -15 -10 0 -10 3 -1 14 9 11 9 16 0 22 -7 4 -17 1 -23 -7 -6 -8 -23
-20 -38 -26 -25 -11 -28 -10 -28 5 -1 16 -1 16 -11 -1 -8 -14 -14 -15 -24 -7
-10 8 -15 8 -20 0 -8 -13 -50 -5 -104 18 -44 20 -112 25 -110 9 3 -28 -2 -47
-12 -47 -8 0 -10 12 -6 36 5 31 4 35 -11 29 -9 -4 -24 -9 -32 -10 -29 -4 -75
-18 -110 -33 -49 -22 -72 -24 -81 -10 -6 9 -11 9 -22 0 -7 -7 -17 -9 -20 -5
-4 3 -13 0 -21 -6 -8 -7 -21 -9 -27 -5 -7 4 -18 -1 -26 -12 -14 -19 -14 -19
-26 1 -6 11 -12 24 -12 30 0 23 -33 15 -39 -10 l-6 -25 -22 20 c-28 26 -46 25
-51 -2 -3 -18 -5 -17 -6 7 -1 26 -3 28 -14 14 -10 -13 -25 -16 -62 -13 -48 3
-152 -24 -182 -48 -12 -9 -48 -8 -170 6 -29 3 -74 8 -100 11 -145 16 -203 24
-210 28 -5 3 -45 9 -88 12 -44 4 -93 9 -110 10 -16 2 -37 5 -45 8 -40 14 -110
28 -155 32 -27 2 -52 5 -55 6 -3 1 -13 1 -23 0 -9 -1 -17 2 -17 7 0 5 -21 13
-47 17 -102 16 -146 16 -185 1 -21 -9 -55 -16 -74 -16 -32 0 -35 2 -23 16 11
13 9 14 -17 9 -20 -5 -25 -4 -15 3 7 5 10 15 7 21 -10 16 -26 14 -26 -4 0 -9
-8 -14 -22 -12 -17 1 -23 -3 -22 -15 1 -13 -6 -18 -27 -18 -29 0 -39 14 -16
23 6 3 -4 6 -24 6 -19 1 -40 6 -47 13 -9 9 -12 9 -12 0 0 -7 5 -12 10 -12 6 0
10 -4 10 -10 0 -13 -43 -13 -56 -1 -13 13 -45 16 -68 6 -13 -6 -23 -3 -31 8
-10 15 -14 15 -33 1 -13 -8 -19 -21 -16 -27 5 -8 3 -8 -7 0 -23 22 -30 14 -27
-29 2 -34 7 -44 23 -46 11 -2 27 -6 35 -9 8 -4 17 -7 20 -7 3 -1 11 -5 17 -9
7 -5 13 -6 13 -2 0 3 9 1 21 -6 12 -6 64 -11 117 -12 58 0 85 -3 67 -7 -37 -8
-20 -17 48 -24 27 -3 55 -10 61 -15 7 -6 15 -8 18 -5 3 3 26 0 49 -7 40 -11
61 -14 137 -22 12 -1 22 -5 22 -9 0 -4 15 -7 33 -7 17 1 52 -6 76 -15 24 -9
62 -16 86 -16 23 0 45 -3 49 -7 8 -8 13 -9 161 -28 61 -8 132 -18 160 -23 27
-5 90 -10 139 -11 49 -1 94 -5 99 -8 5 -3 30 -7 56 -8 75 -4 185 -16 201 -22
8 -3 60 -7 115 -8 55 -1 107 -5 115 -8 21 -8 157 -17 278 -18 56 -1 105 -5
108 -10 3 -5 15 -8 27 -8 42 2 542 -11 647 -17 144 -9 1029 -8 1280 1 252 8
263 9 275 16 6 4 90 7 188 7 99 1 184 5 190 10 7 5 28 8 47 6 19 -1 38 2 41 7
10 17 50 19 56 4 5 -15 44 -21 56 -8 4 3 53 7 109 9 217 7 357 19 573 49 11 1
66 6 123 10 56 4 102 11 102 16 0 5 15 8 33 8 38 -1 248 20 257 26 7 5 189 19
238 19 17 0 32 3 32 8 0 5 5 6 10 3 6 -4 16 -2 23 3 7 6 37 15 68 20 31 6 84
20 119 32 39 13 78 20 102 17 21 -2 38 -1 38 4 0 4 9 11 20 14 19 6 20 15 20
170 0 121 -3 165 -12 168 -10 4 -10 6 0 6 6 1 12 8 12 16 0 15 -19 14 -67 -1
-9 -2 -13 6 -12 24 1 17 3 20 6 10 2 -10 9 -18 14 -18 6 0 8 8 4 19 -7 22 18
46 40 37 13 -5 15 21 15 199 l0 204 -56 11 c-30 7 -81 16 -112 21 -31 5 -106
17 -167 28 -60 11 -112 18 -114 16 -7 -7 21 -35 35 -35 7 0 18 -9 24 -20 6
-12 30 -25 55 -32 25 -7 45 -15 45 -19 0 -4 16 -13 36 -19 27 -9 33 -15 23
-21 -11 -7 -11 -9 3 -9 9 0 25 -13 35 -30 9 -17 25 -30 34 -30 15 0 18 -17 25
-117 4 -65 9 -120 9 -123 3 -11 17 -46 23 -60 4 -8 7 -28 7 -45 -3 -110 -5
-126 -17 -119 -8 5 -9 2 -5 -9 3 -10 2 -17 -3 -17 -18 0 -10 -18 10 -23 14 -4
20 -14 20 -35 0 -17 -6 -33 -12 -35 -10 -4 -9 -8 2 -16 8 -5 11 -13 8 -17 -4
-3 -15 2 -25 11 -17 17 -18 17 -23 -6 -5 -20 -7 -21 -12 -7 -7 17 -35 18 -46
2 -8 -12 -83 -14 -76 -2 3 4 12 8 20 8 8 0 14 5 14 11 0 6 9 8 20 4 14 -4 20
-2 20 8 0 13 -7 13 -51 0 -39 -12 -57 -13 -76 -4 -30 14 -36 14 -28 1 13 -21
-101 -2 -162 27 -21 11 -41 13 -60 8 -33 -10 -33 -10 -53 -18 -15 -6 -83 -19
-110 -21 -67 -7 -141 -20 -146 -27 -3 -5 -21 -9 -39 -9 -41 0 -117 -28 -109
-41 6 -11 -11 -10 -46 1 l-25 8 24 1 c13 1 22 4 18 7 -3 3 -38 0 -79 -6 -40
-7 -102 -14 -138 -16 -36 -3 -83 -9 -105 -14 -68 -15 -109 -20 -181 -21 -38
-1 -73 -4 -79 -8 -5 -3 -26 -7 -45 -7 -73 -3 -105 -8 -112 -19 -5 -6 -8 -6 -8
3 0 6 -4 12 -10 12 -5 0 -10 -9 -10 -20 0 -15 -6 -18 -30 -15 -27 3 -29 2 -20
-16 9 -15 7 -19 -5 -19 -9 0 -13 5 -10 10 3 6 -1 10 -9 10 -9 0 -16 -7 -16
-16 0 -8 -5 -12 -10 -9 -16 10 -24 -26 -11 -46 6 -11 7 -19 2 -19 -5 0 -12 6
-14 12 -4 10 -6 10 -6 0 -1 -7 -6 -10 -11 -7 -8 5 -7 11 1 21 9 11 9 14 -1 14
-7 0 -10 6 -7 14 3 8 -1 17 -9 20 -24 9 -27 7 -15 -8 9 -11 9 -16 -1 -23 -7
-4 -13 -14 -13 -22 0 -9 -20 -19 -54 -27 -29 -6 -57 -18 -61 -25 -7 -10 -11
-10 -23 0 -16 13 -48 12 -58 -2 -4 -5 -9 3 -13 17 -3 14 -11 26 -16 26 -5 0
-6 -7 -3 -17 4 -11 3 -14 -5 -9 -8 5 -12 -3 -12 -25 0 -35 -6 -37 -12 -4 -7
41 -57 64 -83 38 -8 -8 -15 -10 -15 -4 0 6 -9 11 -20 11 -13 0 -24 10 -31 26
-10 28 -24 25 -24 -4 0 -18 -39 -21 -93 -7 l-27 7 25 10 c15 6 20 12 13 15 -7
3 -13 11 -13 19 0 18 -9 18 -29 0 -14 -13 -25 -13 -83 -1 -37 8 -75 12 -84 8
-11 -4 -15 -3 -10 5 3 6 -2 13 -11 16 -28 9 -239 9 -440 1 -129 -5 -183 -3
-183 4 0 12 14 14 73 11 23 -1 37 3 37 10 0 7 8 10 20 7 11 -3 18 -1 15 3 -10
16 14 20 67 13 29 -5 69 -6 88 -2 29 5 30 7 9 8 -15 0 -29 8 -33 16 -4 13 8
15 74 15 62 0 80 -3 80 -14 0 -8 -6 -17 -12 -19 -10 -4 -10 -6 -1 -6 6 -1 15
3 18 9 3 5 11 10 16 10 6 0 7 -5 4 -10 -3 -6 1 -10 9 -10 9 0 16 5 16 10 0 6
5 10 11 10 5 0 8 -4 5 -9 -9 -15 72 -22 94 -9 21 14 27 28 10 28 -5 0 -10 -5
-10 -10 0 -7 -8 -6 -22 2 -22 12 -22 13 12 18 l35 5 -4 176 -3 177 46 4 c53 4
54 2 58 -87 l3 -50 73 0 72 0 0 66 c0 43 5 70 13 78 8 6 61 15 118 21 164 16
329 46 494 89 23 6 84 8 145 5 112 -6 151 4 156 39 5 36 14 47 38 47 25 0 56
40 56 73 0 8 9 26 20 40 11 14 20 39 20 57 0 17 5 40 10 50 9 16 17 69 21 135
1 6 -2 25 -6 43 -7 31 -6 32 26 33 79 3 -76 18 -306 29 -381 20 -357 20 -378
-7 -10 -13 -17 -27 -15 -31 16 -36 94 -155 105 -159 7 -3 13 -11 13 -18 0 -8
10 -17 23 -21 19 -7 17 -9 -18 -16 -96 -21 -406 -58 -487 -58 -53 0 -58 2 -58
23 -1 12 -2 87 -3 167 l-2 145 -63 7 c-34 4 -73 8 -85 10 -17 2 -21 -1 -19
-17 2 -11 6 -91 9 -177 l5 -157 62 -3 c53 -3 46 -4 -54 -13 l-115 -10 3 138 3
137 25 0 c30 0 32 17 2 23 -17 3 -15 5 9 6 40 1 39 30 -3 47 l-29 12 30 5 30
4 -32 2 c-31 1 -33 3 -33 39 -1 20 -3 60 -6 87 -2 28 0 56 5 64 6 9 39 15 107
19 55 2 96 1 92 -3 -4 -4 -40 -7 -79 -7 l-71 1 6 -31 c3 -17 6 -46 6 -64 l0
-34 74 0 c41 0 78 5 81 10 3 6 27 11 53 11 27 1 36 4 21 6 -22 3 -28 11 -35
41 -4 20 -8 53 -8 72 -1 31 2 35 27 38 16 2 27 -1 27 -9 0 -8 4 -8 15 1 8 7
15 19 15 26 0 25 28 15 34 -12 7 -25 8 -25 21 -8 10 14 10 21 2 26 -7 4 2 8
20 8 17 0 33 -6 36 -12 4 -10 7 -10 18 0 9 8 49 12 125 12 152 0 164 -11 113
-112 -15 -28 -16 -39 -6 -45 6 -4 68 -9 137 -10 69 -2 181 -7 250 -13 69 -6
177 -15 240 -20 63 -6 171 -10 240 -10 69 0 197 -4 285 -10 88 -5 228 -12 310
-15 150 -7 185 -14 185 -39 0 -20 105 -27 255 -16 72 5 145 9 163 10 l33 0 -3
498 -3 497 -35 50 c-19 28 -40 53 -47 58 -6 4 -21 23 -33 42 -12 20 -29 34
-38 33 -9 -1 -35 -3 -57 -5z m-342 -398 c1 -5 -6 -11 -15 -13 -11 -2 -18 3
-18 13 0 17 30 18 33 0z m-446 -151 c-3 -3 -12 -4 -19 -1 -8 3 -5 6 6 6 11 1
17 -2 13 -5z m663 -104 c0 -5 -5 -10 -11 -10 -5 0 -7 5 -4 10 3 6 8 10 11 10
2 0 4 -4 4 -10z m-1070 -20 c0 -5 -4 -10 -10 -10 -5 0 -10 5 -10 10 0 6 5 10
10 10 6 0 10 -4 10 -10z m60 0 c11 -7 12 -12 3 -21 -15 -15 -47 -7 -51 14 -4
19 23 23 48 7z m155 0 c-3 -5 -12 -10 -18 -10 -7 0 -6 4 3 10 19 12 23 12 15
0z m-3445 -26 c15 -37 11 -43 -6 -11 -8 16 -20 25 -26 21 -7 -4 -8 -3 -4 4 12
19 26 14 36 -14z m124 5 c-9 -15 -34 -10 -28 5 3 8 12 12 20 9 8 -3 11 -9 8
-14z m3286 8 c0 -8 -15 -13 -42 -13 -24 0 -35 1 -25 4 9 2 17 8 17 13 0 5 11
9 25 9 14 0 25 -6 25 -13z m850 -2 c-7 -9 -15 -13 -19 -10 -3 3 1 10 9 15 21
14 24 12 10 -5z m-3227 -20 c-7 -21 -13 -19 -13 6 0 11 4 18 10 14 5 -3 7 -12
3 -20z m77 -1 c0 -2 -7 -4 -15 -4 -8 0 -15 4 -15 10 0 5 7 7 15 4 8 -4 15 -8
15 -10z m1200 12 c0 -2 -7 -9 -15 -16 -13 -11 -14 -10 -9 4 5 14 24 23 24 12z
m1920 -15 c0 -6 -9 -9 -20 -8 -11 1 -20 5 -20 9 0 4 9 8 20 8 11 0 20 -4 20
-9z m-4283 -23 c-3 -8 -6 -5 -6 6 -1 11 2 17 5 13 3 -3 4 -12 1 -19z m1987 -3
c-3 -8 -19 -21 -35 -29 -27 -13 -29 -13 -29 5 0 11 10 24 23 29 33 13 47 12
41 -5z m454 -2 c-2 -12 -11 -17 -27 -15 -13 2 -28 -4 -35 -14 -17 -22 -46 -12
-46 17 0 17 5 20 24 17 14 -3 31 -1 38 3 24 15 50 10 46 -8z m-258 -18 c-7 -9
-15 -13 -19 -10 -3 3 1 10 9 15 21 14 24 12 10 -5z m55 5 c3 -5 -3 -10 -14
-10 -12 0 -21 5 -21 10 0 6 6 10 14 10 8 0 18 -4 21 -10z m1115 -5 c0 -9 -7
-18 -15 -21 -8 -4 -15 -14 -15 -24 0 -18 41 -19 316 -9 94 4 102 2 110 -16 8
-18 20 -20 147 -22 104 -1 137 1 134 10 -3 9 -36 11 -119 8 -99 -3 -116 -1
-121 13 -4 10 -1 16 8 16 8 0 15 4 15 9 0 4 33 8 73 8 39 0 104 3 144 7 50 5
74 3 78 -5 6 -8 10 -7 16 2 7 12 12 12 29 1 17 -10 25 -10 36 -1 11 9 17 9 29
-1 8 -6 20 -8 26 -4 8 5 10 2 6 -9 -8 -22 12 -27 118 -27 l94 0 0 -70 c0 -91
10 -110 61 -110 22 0 40 -4 40 -9 0 -11 -89 -18 -235 -17 l-110 1 -3 33 c-4
37 -34 55 -86 50 -31 -3 -31 -4 -31 -60 0 -31 -4 -60 -8 -64 -10 -10 -43 10
-40 25 4 15 -79 10 -99 -7 -11 -9 -18 -11 -18 -4 0 6 -7 9 -16 5 -9 -3 -19 -1
-23 5 -5 9 -17 9 -42 2 -18 -6 -47 -7 -64 -4 -16 4 -53 7 -82 6 -29 -1 -55 3
-59 9 -4 6 -11 5 -22 -3 -10 -9 -16 -10 -19 -2 -2 7 -22 9 -55 6 -48 -5 -51
-4 -45 17 3 11 1 21 -4 21 -5 0 -9 -4 -9 -9 0 -25 -108 -29 -126 -5 -10 12
-13 12 -17 2 -2 -7 -8 -10 -12 -6 -4 4 -2 15 6 24 12 14 11 16 -6 12 -11 -2
-20 -11 -20 -21 0 -9 -4 -17 -8 -17 -37 0 -42 1 -23 9 30 12 7 18 -59 17 -33
-1 -71 2 -84 6 -23 8 -23 9 -5 23 26 19 34 19 28 -2 -5 -16 -4 -16 10 1 8 10
19 15 25 12 6 -4 19 -2 30 4 16 8 22 7 29 -6 8 -14 14 -15 38 -6 26 9 27 10 6
11 -13 1 -21 5 -17 10 6 11 115 3 129 -9 5 -5 19 -4 32 2 17 8 39 8 79 0 55
-11 111 -7 120 9 3 4 21 5 40 2 21 -3 41 -1 49 6 12 10 20 9 40 -4 18 -12 30
-14 44 -6 10 6 56 10 100 10 45 0 86 2 91 6 5 3 12 1 15 -3 3 -5 25 -6 48 -2
24 3 89 5 145 4 77 -2 106 1 120 12 17 14 16 15 -6 8 -15 -4 -27 -1 -32 7 -7
11 -11 11 -17 2 -5 -8 -19 -9 -42 -5 -39 8 -122 7 -145 -2 -8 -3 -27 -1 -42 5
-17 6 -36 6 -54 0 -20 -7 -31 -6 -35 1 -4 7 -31 8 -75 4 -54 -6 -69 -4 -69 6
0 11 -2 10 -9 0 -6 -10 -26 -12 -82 -8 -41 4 -82 9 -92 12 -10 3 -25 0 -33 -6
-8 -8 -28 -10 -49 -7 -19 3 -37 1 -41 -5 -4 -6 -20 -7 -43 -2 -48 10 -151 11
-151 2 0 -11 -38 -10 -44 1 -3 4 -17 7 -31 6 -16 -2 -25 2 -25 11 0 8 4 14 10
14 5 0 13 11 16 26 5 21 11 24 33 19 26 -5 27 -4 26 27 -1 18 1 36 3 41 6 14
42 7 42 -8z m-3001 -16 c-8 -5 -22 -9 -31 -9 -10 0 -17 -3 -15 -7 3 -10 -7
-13 -35 -12 -22 1 -22 1 2 8 l25 7 -28 7 c-45 12 -23 22 38 18 39 -2 53 -6 44
-12z m371 -8 c-5 -10 -6 -22 -2 -26 4 -5 -1 -5 -11 -2 -10 4 -40 8 -65 9 l-47
1 45 7 c33 5 12 7 -75 9 -135 1 -199 12 -130 21 22 3 97 4 168 2 119 -3 127
-4 117 -21z m-1397 0 c4 -17 -1 -20 -42 -23 -43 -3 -46 -5 -46 -30 1 -26 0
-26 -34 -12 -19 8 -36 12 -39 9 -3 -3 -12 1 -20 7 -11 10 -86 12 -303 10 -159
-2 -289 1 -289 5 0 5 9 16 20 26 11 9 20 12 20 7 0 -6 7 -10 15 -10 8 0 15 6
15 13 0 7 3 8 8 2 12 -16 89 -16 102 0 10 13 59 15 300 15 277 0 288 -1 293
-19z m737 8 c0 -6 -7 -9 -15 -5 -8 3 -21 -1 -29 -9 -17 -17 -30 -20 -21 -5 4
6 -7 10 -24 10 -17 0 -31 5 -31 10 0 6 27 10 60 10 37 0 60 -4 60 -11z m100 1
c0 -5 -8 -11 -17 -11 -17 -1 -17 -2 0 -6 9 -2 17 -8 17 -13 0 -4 -9 -6 -20 -3
-11 3 -20 9 -20 14 0 5 -9 9 -20 9 -11 0 -20 5 -20 10 0 6 18 10 40 10 22 0
40 -4 40 -10z m70 0 c0 -5 -11 -9 -25 -8 -14 1 -25 6 -25 10 0 4 11 8 25 8 14
0 25 -4 25 -10z m980 0 c0 -6 -30 -10 -70 -10 -40 0 -70 4 -70 10 0 6 30 10
70 10 40 0 70 -4 70 -10z m-2720 -38 c0 -11 -7 -18 -20 -18 -11 0 -20 1 -20 2
0 1 3 9 6 18 8 22 34 20 34 -2z m1557 12 c-3 -3 -12 -4 -19 -1 -8 3 -5 6 6 6
11 1 17 -2 13 -5z m33 -4 c0 -5 -2 -10 -4 -10 -3 0 -8 5 -11 10 -3 6 -1 10 4
10 6 0 11 -4 11 -10z m30 0 c0 -5 -2 -10 -4 -10 -3 0 -8 5 -11 10 -3 6 -1 10
4 10 6 0 11 -4 11 -10z m377 4 c-3 -3 -12 -4 -19 -1 -8 3 -5 6 6 6 11 1 17 -2
13 -5z m91 -1 c-10 -2 -26 -2 -35 0 -10 3 -2 5 17 5 19 0 27 -2 18 -5z m1902
-13 c-9 -16 -8 -20 5 -20 8 0 15 -4 15 -10 0 -18 22 -10 27 10 5 20 6 20 24
-1 11 -12 19 -26 19 -31 0 -4 -45 -8 -100 -8 -93 0 -100 1 -100 20 0 11 2 20
4 20 2 0 11 3 20 6 11 4 16 1 16 -10 0 -23 17 -20 25 5 5 16 28 33 53 38 1 1
-2 -8 -8 -19z m-2055 -30 c-2 -3 62 -4 141 -2 132 2 144 1 145 -15 2 -20 2
-35 -2 -109 l-2 -50 -111 -2 c-91 -2 -116 -5 -137 -21 -22 -16 -27 -17 -35 -4
-12 19 -89 29 -107 15 -8 -7 -34 -9 -68 -6 -63 7 -80 7 -174 0 -38 -3 -64 -3
-57 0 6 3 12 12 12 20 0 11 -17 14 -72 14 -40 0 -83 3 -95 6 -41 11 -24 24 30
24 59 0 55 -5 60 79 l2 45 128 1 c70 1 127 -3 127 -7 0 -5 6 -6 12 -2 7 5 32
9 56 10 23 0 45 4 48 7 7 6 103 4 99 -3z m755 1 c18 -1 40 -54 40 -95 0 -34
18 -69 31 -61 5 4 9 2 9 -4 0 -5 -26 -10 -57 -11 -32 0 -75 -2 -95 -4 l-38 -4
0 90 c0 85 1 90 20 85 11 -3 20 -2 20 2 0 4 12 6 28 5 15 -1 34 -3 42 -3z
m1160 -16 c0 -9 -9 -15 -25 -15 -26 0 -34 15 -12 23 23 10 37 7 37 -8z m-3520
-49 c10 -13 7 -14 -17 -12 -36 5 -35 4 -28 16 9 14 31 12 45 -4z m4867 8 c-3
-3 -12 -4 -19 -1 -8 3 -5 6 6 6 11 1 17 -2 13 -5z m-4780 -10 c-3 -3 -12 -4
-19 -1 -8 3 -5 6 6 6 11 1 17 -2 13 -5z m3916 -89 c4 -8 2 -17 -3 -20 -6 -4
-10 3 -10 14 0 25 6 27 13 6z m-3257 -35 c13 0 24 -4 24 -10 0 -5 -18 -9 -39
-8 -35 1 -38 3 -28 20 7 10 13 14 15 8 2 -5 15 -10 28 -10z m-528 -29 c3 -8
-1 -12 -9 -9 -7 2 -15 10 -17 17 -3 8 1 12 9 9 7 -2 15 -10 17 -17z m2210 0
c20 -1 22 -6 22 -48 0 -52 -7 -68 -30 -68 -22 0 -25 -35 -3 -36 17 0 17 -1 0
-7 -16 -7 -16 -9 -3 -27 9 -11 16 -31 16 -45 0 -15 5 -31 10 -36 7 -7 10 -52
8 -115 l-3 -104 -100 0 -99 0 2 235 c1 129 2 238 2 242 0 8 67 14 120 11 19
-1 45 -2 58 -2z m-2783 -11 c3 -5 -1 -10 -9 -10 -9 0 -16 5 -16 10 0 6 4 10 9
10 6 0 13 -4 16 -10z m-260 -10 c11 -2 -7 -6 -39 -9 -65 -7 -126 -3 -126 8 0
7 117 7 165 1z m295 0 c0 -5 -4 -10 -10 -10 -5 0 -10 5 -10 10 0 6 5 10 10 10
6 0 10 -4 10 -10z m-520 -9 c0 -14 -18 -23 -31 -15 -8 4 -7 9 2 15 18 11 29
11 29 0z m-63 -26 c8 -9 12 -19 8 -23 -3 -4 -12 0 -18 9 -7 9 -19 18 -27 22
-12 4 -11 6 3 6 10 1 25 -6 34 -14z m4796 -132 c-7 -2 -21 -2 -30 0 -10 3 -4
5 12 5 17 0 24 -2 18 -5z m52 -13 c3 -5 -1 -10 -9 -10 -9 0 -16 5 -16 10 0 6
4 10 9 10 6 0 13 -4 16 -10z m82 -16 c-3 -3 -12 -4 -19 -1 -8 3 -5 6 6 6 11 1
17 -2 13 -5z m144 -55 c17 -14 20 -22 11 -25 -6 -3 -10 -9 -7 -14 3 -4 -2 -11
-10 -14 -13 -4 -13 -2 -5 14 8 15 6 24 -10 40 -26 26 -9 26 21 -1z m-31 -69
c0 -5 -8 -10 -17 -10 -15 0 -16 2 -3 10 19 12 20 12 20 0z m-43 -16 c-3 -3
-12 -4 -19 -1 -8 3 -5 6 6 6 11 1 17 -2 13 -5z m-57 -14 c0 -5 -4 -10 -10 -10
-5 0 -10 5 -10 10 0 6 5 10 10 10 6 0 10 -4 10 -10z m-1290 -111 c0 -5 -9 -9
-20 -9 -11 0 -20 4 -20 8 0 4 9 8 20 9 11 1 20 -2 20 -8z m90 0 c0 -5 -11 -9
-25 -9 -33 0 -33 15 0 16 14 1 25 -2 25 -7z m80 -1 c0 -4 -12 -8 -26 -8 -14 0
-23 4 -19 9 6 11 45 10 45 -1z m-479 -366 c0 -4 1 -101 2 -215 2 -136 -1 -211
-8 -215 -5 -3 -43 -5 -84 -3 -53 2 -76 -1 -82 -10 -20 -32 -24 21 -21 273 2
175 2 177 25 180 36 5 167 -3 168 -10z m376 2 c-3 -3 -12 -4 -19 -1 -8 3 -5 6
6 6 11 1 17 -2 13 -5z m-147 -44 c0 -5 -7 -7 -15 -4 -8 4 -15 8 -15 10 0 2 7
4 15 4 8 0 15 -4 15 -10z m238 -187 c-16 -2 -40 -2 -55 0 -16 2 -3 4 27 4 30
0 43 -2 28 -4z m-1428 -27 c0 -11 -19 -15 -25 -6 -3 5 1 10 9 10 9 0 16 -2 16
-4z m-45 -46 c127 -9 141 -9 153 7 11 15 16 11 13 -9 0 -5 35 -8 79 -9 200 -3
203 -4 202 -56 0 -15 5 -31 11 -35 15 -9 -79 -22 -106 -13 -12 3 -119 10 -237
15 -219 9 -352 17 -450 29 l-54 6 79 42 c69 36 86 42 125 37 25 -2 108 -9 185
-14z m1255 4 c0 -2 -12 -4 -27 -4 -21 0 -24 3 -14 9 13 8 41 5 41 -5z m-1710
-15 c0 -5 -4 -9 -10 -9 -5 0 -10 7 -10 16 0 8 5 12 10 9 6 -3 10 -10 10 -16z
m-1629 -19 c-12 -7 -84 -6 -101 1 -3 1 20 5 50 8 60 7 72 5 51 -9z m2742 -7
c-7 -2 -21 -2 -30 0 -10 3 -4 5 12 5 17 0 24 -2 18 -5z m923 -20 c-10 -10 -19
5 -10 18 6 11 8 11 12 0 2 -7 1 -15 -2 -18z m-273 10 c-7 -2 -21 -2 -30 0 -10
3 -4 5 12 5 17 0 24 -2 18 -5z m-3360 -10 c-7 -2 -19 -2 -25 0 -7 3 -2 5 12 5
14 0 19 -2 13 -5z m1247 -57 c0 -3 -4 -8 -10 -11 -5 -3 -10 -1 -10 4 0 6 5 11
10 11 6 0 10 -2 10 -4z m3490 -20 c0 -3 -4 -8 -10 -11 -5 -3 -10 -1 -10 4 0 6
5 11 10 11 6 0 10 -2 10 -4z m-90 -26 c0 -5 -7 -10 -15 -10 -8 0 -15 5 -15 10
0 6 7 10 15 10 8 0 15 -4 15 -10z m-873 -13 c-1 -5 -7 -8 -12 -7 -5 1 -12 -7
-16 -17 -6 -15 -8 -13 -8 7 -1 19 4 26 19 26 11 0 19 -4 17 -9z m820 -12 c9
-20 8 -25 -3 -25 -8 0 -14 4 -14 9 0 5 -3 16 -6 25 -10 26 10 18 23 -9z m-780
9 c-3 -3 -12 -4 -19 -1 -8 3 -5 6 6 6 11 1 17 -2 13 -5z m153 -38 c0 -2 -11
-6 -25 -8 -13 -3 -22 -1 -19 3 5 9 44 13 44 5z m695 -6 c3 -5 1 -10 -4 -10 -6
0 -11 5 -11 10 0 6 2 10 4 10 3 0 8 -4 11 -10z m-157 -17 c-10 -2 -26 -2 -35
0 -10 3 -2 5 17 5 19 0 27 -2 18 -5z m165 -10 c-7 -2 -19 -2 -25 0 -7 3 -2 5
12 5 14 0 19 -2 13 -5z"/>
<path d="M5870 1930 c-30 -6 -26 -8 28 -9 40 -1 61 3 57 9 -7 11 -32 11 -85 0z"/>
<path d="M5666 1888 c3 -4 11 -5 19 -1 21 7 19 12 -4 10 -11 0 -18 -5 -15 -9z"/>
<path d="M5790 1880 c0 -5 5 -10 10 -10 6 0 10 5 10 10 0 6 -4 10 -10 10 -5 0
-10 -4 -10 -10z"/>
<path d="M6728 1853 c6 -2 18 -2 25 0 6 3 1 5 -13 5 -14 0 -19 -2 -12 -5z"/>
<path d="M5780 1810 c0 -5 7 -10 15 -10 8 0 15 5 15 10 0 6 -7 10 -15 10 -8 0
-15 -4 -15 -10z"/>
<path d="M6200 1791 c0 -6 5 -13 10 -16 6 -4 8 -11 5 -16 -4 -5 -2 -9 3 -9 17
0 21 13 11 31 -10 20 -29 26 -29 10z"/>
<path d="M6150 1770 c0 -5 5 -10 11 -10 5 0 7 5 4 10 -3 6 -8 10 -11 10 -2 0
-4 -4 -4 -10z"/>
<path d="M6010 1750 c0 -5 5 -10 11 -10 5 0 7 5 4 10 -3 6 -8 10 -11 10 -2 0
-4 -4 -4 -10z"/>
<path d="M2608 1893 c6 -2 18 -2 25 0 6 3 1 5 -13 5 -14 0 -19 -2 -12 -5z"/>
<path d="M2748 1893 c17 -2 47 -2 65 0 17 2 3 4 -33 4 -36 0 -50 -2 -32 -4z"/>
<path d="M3530 590 c0 -6 7 -10 15 -10 8 0 15 2 15 4 0 2 -7 6 -15 10 -8 3
-15 1 -15 -4z"/>
<path d="M3495 570 c-3 -5 -1 -10 4 -10 6 0 11 5 11 10 0 6 -2 10 -4 10 -3 0
-8 -4 -11 -10z"/>
<path d="M0 2486 l0 -136 44 0 c24 0 64 -3 89 -6 36 -5 44 -10 39 -23 -5 -13
-3 -14 10 -3 8 7 22 11 29 9 8 -2 11 -2 6 0 -9 6 1 23 14 23 5 0 9 -7 9 -15 0
-8 8 -15 18 -14 10 0 12 3 5 6 -7 2 -13 10 -13 17 0 16 176 12 252 -5 25 -6
82 -10 125 -9 43 2 110 -2 148 -8 57 -8 72 -7 81 4 13 17 48 18 76 3 25 -14
39 3 36 43 -1 15 5 35 14 45 23 25 10 42 -48 63 -40 13 -49 21 -49 41 0 16 -9
28 -27 37 -35 16 -118 27 -118 15 0 -5 -6 -17 -13 -27 -11 -15 -17 -16 -33 -7
-10 6 -68 15 -129 21 -208 18 -310 30 -335 36 -14 4 -47 9 -75 10 -27 2 -74 6
-102 10 l-53 7 0 -137z m734 19 c-4 -8 -10 -12 -15 -9 -11 6 -2 24 11 24 5 0
7 -7 4 -15z m66 -3 c0 -5 -11 -19 -24 -31 -17 -16 -26 -19 -31 -10 -5 7 2 19
16 30 26 20 39 24 39 11z m103 -90 c42 -11 47 -30 6 -27 -32 2 -48 21 -47 55
0 10 2 10 5 -2 2 -10 18 -21 36 -26z m-93 -2 c0 -5 -7 -10 -16 -10 -8 0 -12 5
-9 10 3 6 10 10 16 10 5 0 9 -4 9 -10z m-765 -40 c-3 -5 -12 -7 -20 -3 -21 7
-19 13 6 13 11 0 18 -4 14 -10z m860 -10 c3 -5 1 -10 -4 -10 -6 0 -11 5 -11
10 0 6 2 10 4 10 3 0 8 -4 11 -10z m-717 -7 c-10 -2 -28 -2 -40 0 -13 2 -5 4
17 4 22 1 32 -1 23 -4z"/>
<path d="M0 2332 c0 -4 16 -8 35 -9 19 -1 35 3 35 8 0 5 -16 9 -35 9 -19 0
-35 -4 -35 -8z"/>
<path d="M80 2331 c0 -5 -3 -18 -6 -28 -4 -14 -4 -15 4 -4 6 8 15 10 23 5 11
-6 12 -5 2 8 -7 8 -10 18 -6 21 3 4 1 7 -5 7 -7 0 -12 -4 -12 -9z"/>
<path d="M280 2336 c0 -2 7 -7 16 -10 8 -3 12 -2 9 4 -6 10 -25 14 -25 6z"/>
<path d="M120 2320 c0 -5 4 -10 9 -10 6 0 13 5 16 10 3 6 -1 10 -9 10 -9 0
-16 -4 -16 -10z"/>
<path d="M308 2303 c7 -3 16 -2 19 1 4 3 -2 6 -13 5 -11 0 -14 -3 -6 -6z"/>
<path d="M957 2290 c-3 -11 -1 -23 4 -26 5 -3 9 6 9 20 0 31 -6 34 -13 6z"/>
<path d="M4843 2103 c9 -2 23 -2 30 0 6 3 -1 5 -18 5 -16 0 -22 -2 -12 -5z"/>
<path d="M891 1893 c-1 -7 -10 -13 -21 -13 -11 0 -20 -3 -20 -7 0 -5 42 -9 93
-10 77 -2 94 0 94 12 0 8 -7 15 -14 15 -8 0 -11 -4 -8 -10 4 -6 -5 -10 -19
-10 -14 0 -26 5 -26 10 0 7 -6 7 -20 0 -17 -9 -20 -8 -20 7 -1 16 -2 16 -12
-2 -11 -19 -11 -19 -19 0 -4 11 -8 14 -8 8z"/>
<path d="M460 1871 l-45 -6 65 -6 c36 -4 88 -3 115 1 28 4 38 8 24 9 -14 0
-46 3 -70 5 -24 2 -64 1 -89 -3z"/>
<path d="M693 1867 c-3 -5 -3 -10 -2 -12 7 -6 59 7 59 15 0 10 -50 7 -57 -3z"/>
<path d="M303 1863 c9 -2 25 -2 35 0 9 3 1 5 -18 5 -19 0 -27 -2 -17 -5z"/>
<path d="M1558 1853 c7 -3 16 -2 19 1 4 3 -2 6 -13 5 -11 0 -14 -3 -6 -6z"/>
<path d="M825 1830 c-15 -7 -9 -9 25 -9 33 -1 41 2 30 9 -18 12 -28 12 -55 0z"/>
<path d="M523 1824 c8 -8 186 -8 194 0 4 3 -40 6 -97 6 -57 0 -101 -3 -97 -6z"/>
<path d="M745 1820 c3 -5 15 -10 26 -10 11 0 17 5 14 10 -3 6 -15 10 -26 10
-11 0 -17 -4 -14 -10z"/>
<path d="M948 1803 c-10 -3 -18 -8 -18 -13 0 -16 17 -19 35 -6 20 14 10 25
-17 19z"/>
<path d="M1000 1800 c0 -5 4 -10 9 -10 6 0 13 5 16 10 3 6 -1 10 -9 10 -9 0
-16 -4 -16 -10z"/>
<path d="M1115 1801 c3 -6 -14 -12 -37 -14 -34 -3 -30 -4 17 -4 33 -1 54 1 47
4 -6 2 -10 9 -6 14 3 5 -2 9 -11 9 -9 0 -14 -4 -10 -9z"/>
<path d="M1193 1803 c9 -2 25 -2 35 0 9 3 1 5 -18 5 -19 0 -27 -2 -17 -5z"/>
<path d="M1258 1803 c7 -3 16 -2 19 1 4 3 -2 6 -13 5 -11 0 -14 -3 -6 -6z"/>
<path d="M727 1789 c7 -7 15 -10 18 -7 3 3 -2 9 -12 12 -14 6 -15 5 -6 -5z"/>
<path d="M830 1779 c0 -5 5 -7 10 -4 6 3 10 8 10 11 0 2 -4 4 -10 4 -5 0 -10
-5 -10 -11z"/>
<path d="M935 1750 c-3 -5 -1 -10 4 -10 6 0 11 5 11 10 0 6 -2 10 -4 10 -3 0
-8 -4 -11 -10z"/>
<path d="M993 1734 c-1 -26 -1 -27 54 -21 31 3 61 11 67 17 8 9 -3 10 -46 5
-50 -6 -58 -5 -58 9 0 27 -15 18 -17 -10z"/>
<path d="M846 1722 c-2 -4 -1 -14 3 -21 6 -10 10 -9 14 3 6 16 -8 32 -17 18z"/>
<path d="M2933 1583 c15 -2 37 -2 50 0 12 2 0 4 -28 4 -27 0 -38 -2 -22 -4z"/>
<path d="M4588 1583 c6 -2 18 -2 25 0 6 3 1 5 -13 5 -14 0 -19 -2 -12 -5z"/>
<path d="M5788 1513 c6 -2 18 -2 25 0 6 3 1 5 -13 5 -14 0 -19 -2 -12 -5z"/>
<path d="M5880 1502 c0 -5 10 -12 23 -16 12 -3 32 -14 43 -25 12 -11 36 -22
53 -24 30 -5 58 -21 72 -41 10 -13 151 -17 182 -5 15 6 27 17 27 25 0 7 9 19
21 27 19 14 20 15 2 20 -10 3 -61 9 -113 12 -52 4 -99 10 -105 13 -5 4 -39 7
-75 8 -36 0 -80 4 -97 8 -20 5 -33 4 -33 -2z"/>
<path d="M1373 1488 c-2 -5 25 -8 61 -8 36 0 66 4 66 10 0 11 -119 9 -127 -2z"/>
<path d="M1225 1471 c-11 -5 -25 -6 -32 -4 -6 3 -20 0 -30 -6 -14 -8 -6 -10
40 -11 44 0 57 3 57 15 0 17 -5 17 -35 6z"/>
<path d="M1304 1470 c17 -6 36 -5 45 0 11 7 3 9 -29 9 -42 -1 -43 -1 -16 -9z"/>
<path d="M1088 1443 c12 -2 30 -2 40 0 9 3 -1 5 -23 4 -22 0 -30 -2 -17 -4z"/>
<path d="M6380 1446 c0 -8 71 -12 76 -4 3 4 -13 8 -35 8 -23 0 -41 -2 -41 -4z"/>
<path d="M965 1430 c3 -5 13 -10 21 -10 8 0 12 5 9 10 -3 6 -13 10 -21 10 -8
0 -12 -4 -9 -10z"/>
<path d="M775 1410 c-83 -12 -236 -40 -305 -55 -36 -8 -119 -26 -184 -40 -65
-14 -127 -30 -137 -35 -10 -6 -28 -10 -42 -10 -13 0 -27 -3 -31 -7 -4 -4 -13
-8 -19 -9 -58 -6 -83 -54 -29 -54 15 0 32 4 38 10 5 5 41 10 79 11 39 1 75 6
82 11 6 5 30 10 52 11 23 1 41 4 41 7 0 3 12 6 28 7 53 3 213 33 233 43 11 6
53 12 93 13 77 3 106 16 106 49 0 10 8 21 18 24 9 3 26 10 37 15 11 4 36 10
55 12 24 3 19 4 -15 4 -27 0 -72 -3 -100 -7z"/>
<path d="M5778 1056 c-21 -5 -38 -16 -38 -23 0 -21 67 -45 129 -47 46 -1 56 2
59 17 2 10 -4 20 -15 23 -10 3 -34 13 -53 21 -19 9 -37 16 -40 17 -3 1 -22 -2
-42 -8z"/>
<path d="M6407 984 c-8 -8 1 -24 14 -24 5 0 9 7 9 15 0 15 -12 20 -23 9z"/>
<path d="M5938 963 c7 -3 16 -2 19 1 4 3 -2 6 -13 5 -11 0 -14 -3 -6 -6z"/>
<path d="M5650 920 c-13 -8 -13 -10 1 -10 9 0 19 -7 23 -15 3 -9 18 -15 35
-15 16 0 33 -5 37 -11 4 -8 9 -7 15 2 6 10 9 7 9 -10 0 -19 4 -22 24 -17 20 5
23 3 19 -13 -6 -22 28 -45 55 -38 12 3 11 5 -5 6 -31 1 -37 16 -18 45 15 23
15 27 0 49 -10 16 -29 27 -53 31 -55 9 -125 7 -142 -4z"/>
<path d="M6655 870 c-3 -5 1 -10 9 -10 8 0 18 5 21 10 3 6 -1 10 -9 10 -8 0
-18 -4 -21 -10z"/>
<path d="M6460 796 c0 -2 7 -7 16 -10 8 -3 12 -2 9 4 -6 10 -25 14 -25 6z"/>
<path d="M6240 735 c0 -8 -8 -15 -17 -16 -11 0 -13 -3 -5 -6 6 -2 12 -11 12
-19 0 -17 16 -19 26 -3 3 6 15 9 25 6 20 -5 18 4 -9 36 -19 21 -32 22 -32 2z
m24 -20 c-4 -8 -10 -12 -15 -9 -11 6 -2 24 11 24 5 0 7 -7 4 -15z"/>
<path d="M66 732 c-3 -6 -1 -14 5 -17 15 -10 25 3 12 16 -7 7 -13 7 -17 1z"/>
<path d="M6085 720 c3 -5 10 -10 16 -10 5 0 9 5 9 10 0 6 -7 10 -16 10 -8 0
-12 -4 -9 -10z"/>
<path d="M6836 635 c4 -8 8 -15 10 -15 2 0 4 7 4 15 0 8 -4 15 -10 15 -5 0 -7
-7 -4 -15z"/>
<path d="M2065 591 c-3 -5 -1 -12 5 -16 5 -3 10 1 10 9 0 18 -6 21 -15 7z"/>
<path d="M3968 483 c6 -2 18 -2 25 0 6 3 1 5 -13 5 -14 0 -19 -2 -12 -5z"/>
<path d="M4320 426 c0 -9 40 -13 46 -5 3 5 -6 9 -20 9 -14 0 -26 -2 -26 -4z"/>
<path d="M6 411 c-3 -4 6 -6 19 -3 14 2 25 6 25 8 0 8 -39 4 -44 -5z"/>
<path d="M65 400 c3 -5 17 -10 31 -10 13 0 24 5 24 10 0 6 -14 10 -31 10 -17
0 -28 -4 -24 -10z"/>
<path d="M111 373 c-6 -10 -11 -12 -11 -5 0 15 -27 16 -32 1 -2 -6 -19 -15
-38 -20 -27 -7 -22 -7 20 -2 62 7 181 10 175 5 -2 -2 2 -10 8 -17 9 -10 16
-10 29 -1 23 16 81 8 74 -10 -3 -7 4 -16 15 -19 21 -7 26 -25 7 -25 -6 0 -9
-3 -5 -6 3 -3 15 -3 26 1 l21 6 -22 20 -23 20 49 -5 c27 -3 57 -6 67 -6 13 0
17 -5 13 -17 -4 -11 -3 -14 3 -7 4 6 18 15 31 19 13 4 21 9 19 12 -6 6 -152
34 -192 38 -16 1 -37 4 -45 8 -23 8 -130 27 -156 27 -13 0 -28 -8 -33 -17z"/>
<path d="M4900 370 c0 -5 9 -10 20 -10 11 0 20 5 20 10 0 6 -9 10 -20 10 -11
0 -20 -4 -20 -10z"/>
<path d="M4806 351 c-19 -7 -18 -8 4 -14 26 -7 43 0 35 14 -7 10 -13 10 -39 0z"/>
<path d="M6824 330 c-6 -6 -24 -12 -40 -14 -16 -2 -31 -5 -34 -6 -3 -1 -15 -1
-27 0 -13 1 -23 -4 -23 -10 0 -7 6 -10 14 -7 8 3 17 1 20 -6 3 -9 7 -9 13 1 5
7 26 13 46 14 20 1 34 5 31 10 -3 4 4 8 16 8 12 0 18 5 15 10 -8 13 -18 13
-31 0z"/>
<path d="M6942 317 c-15 -18 -2 -34 33 -41 17 -3 24 -3 18 0 -16 7 -17 34 -2
34 5 0 7 5 4 10 -9 14 -41 12 -53 -3z"/>
<path d="M555 301 c7 -12 64 -11 71 1 3 4 -13 8 -36 8 -23 0 -39 -4 -35 -9z"/>
<path d="M6634 299 c-9 -15 1 -21 26 -17 21 3 21 3 1 15 -14 9 -22 9 -27 2z"/>
<path d="M6858 303 c6 -2 18 -2 25 0 6 3 1 5 -13 5 -14 0 -19 -2 -12 -5z"/>
<path d="M668 283 c6 -2 18 -2 25 0 6 3 1 5 -13 5 -14 0 -19 -2 -12 -5z"/>
<path d="M56 260 c-26 -16 -28 -20 -12 -26 10 -4 15 -13 12 -21 -5 -11 -1 -13
17 -7 32 10 34 14 12 30 -20 15 -20 15 -1 30 29 20 6 16 -28 -6z"/>
<path d="M714 271 c3 -4 34 -14 68 -21 35 -7 69 -18 76 -23 9 -7 17 -6 24 1 7
7 26 13 42 13 l31 1 -35 8 c-122 28 -216 38 -206 21z"/>
<path d="M6716 272 c-4 -3 3 -14 16 -24 28 -21 18 -34 -36 -45 -32 -7 -40 -13
-43 -35 -3 -22 1 -27 26 -33 30 -6 48 -35 36 -55 -4 -6 5 -10 20 -10 16 0 24
4 20 10 -4 6 -2 17 4 24 9 11 2 16 -34 27 -25 7 -45 16 -45 20 0 17 32 29 85
30 48 2 55 4 41 14 -22 16 -20 24 7 35 17 7 18 9 4 9 -10 1 -35 10 -56 21 -21
10 -42 16 -45 12z"/>
<path d="M458 263 c7 -3 16 -2 19 1 4 3 -2 6 -13 5 -11 0 -14 -3 -6 -6z"/>
<path d="M1036 262 c-2 -4 4 -9 15 -9 11 -1 17 2 14 8 -7 11 -22 12 -29 1z"/>
<path d="M1910 259 c0 -5 5 -7 10 -4 6 3 10 8 10 11 0 2 -4 4 -10 4 -5 0 -10
-5 -10 -11z"/>
<path d="M6508 258 c9 -9 15 -9 24 0 9 9 7 12 -12 12 -19 0 -21 -3 -12 -12z"/>
<path d="M480 240 c0 -5 5 -10 10 -10 6 0 10 5 10 10 0 6 -4 10 -10 10 -5 0
-10 -4 -10 -10z"/>
<path d="M613 243 c-13 -2 -23 -11 -23 -19 0 -8 -6 -14 -12 -14 -7 0 -2 -7 10
-16 l22 -15 -22 -19 c-17 -14 -19 -19 -8 -20 9 0 23 8 32 19 14 17 14 19 -2
31 -14 10 -15 16 -7 25 7 7 15 11 18 9 4 -2 9 3 13 11 3 8 4 14 3 14 -1 -1
-12 -4 -24 -6z"/>
<path d="M6468 243 c7 -3 16 -2 19 1 4 3 -2 6 -13 5 -11 0 -14 -3 -6 -6z"/>
<path d="M988 233 c7 -3 16 -2 19 1 4 3 -2 6 -13 5 -11 0 -14 -3 -6 -6z"/>
<path d="M1615 230 c-3 -5 -2 -10 4 -10 5 0 13 5 16 10 3 6 2 10 -4 10 -5 0
-13 -4 -16 -10z"/>
<path d="M6338 233 c6 -2 18 -2 25 0 6 3 1 5 -13 5 -14 0 -19 -2 -12 -5z"/>
<path d="M6503 211 c2 -25 0 -26 -68 -32 -38 -3 -64 -6 -57 -7 6 -1 12 -11 12
-21 0 -10 7 -21 15 -25 8 -3 14 0 12 6 -3 18 44 38 91 38 31 0 42 4 42 15 0 8
8 15 17 15 15 0 15 2 -2 13 -11 8 -30 16 -42 19 -18 5 -21 2 -20 -21z"/>
<path d="M160 206 c-20 -23 -21 -26 -7 -40 19 -20 31 -20 46 -2 9 11 8 15 -4
20 -11 4 -14 13 -10 26 8 26 3 25 -25 -4z"/>
<path d="M910 214 l-55 -13 53 3 c47 3 72 11 61 19 -2 2 -29 -2 -59 -9z"/>
<path d="M1576 214 c-11 -7 -17 -17 -13 -20 3 -4 14 1 23 10 21 22 15 28 -10
10z"/>
<path d="M6225 220 c-18 -8 -17 -9 8 -9 15 -1 27 4 27 9 0 12 -8 12 -35 0z"/>
<path d="M6870 220 c0 -4 9 -10 20 -13 13 -3 18 -11 14 -20 -3 -10 5 -18 27
-26 28 -10 30 -9 18 5 -11 14 -11 18 4 29 20 15 23 29 3 22 -7 -3 -30 -2 -50
3 -20 4 -36 4 -36 0z"/>
<path d="M428 203 c7 -3 16 -2 19 1 4 3 -2 6 -13 5 -11 0 -14 -3 -6 -6z"/>
<path d="M6163 203 c9 -2 23 -2 30 0 6 3 -1 5 -18 5 -16 0 -22 -2 -12 -5z"/>
<path d="M6608 203 c6 -2 18 -2 25 0 6 3 1 5 -13 5 -14 0 -19 -2 -12 -5z"/>
<path d="M810 190 c0 -5 7 -10 16 -10 8 0 12 5 9 10 -3 6 -10 10 -16 10 -5 0
-9 -4 -9 -10z"/>
<path d="M6015 190 c-3 -5 -15 -10 -26 -10 -14 0 -19 -7 -19 -25 0 -18 5 -25
20 -25 12 0 20 7 20 16 0 9 14 21 30 27 17 6 30 15 30 19 0 12 -48 10 -55 -2z"/>
<path d="M6285 190 c-3 -5 1 -10 9 -10 9 0 16 5 16 10 0 6 -4 10 -9 10 -6 0
-13 -4 -16 -10z"/>
<path d="M30 180 c0 -5 5 -10 11 -10 5 0 7 5 4 10 -3 6 -8 10 -11 10 -2 0 -4
-4 -4 -10z"/>
<path d="M763 183 c-17 -2 -37 -11 -43 -19 -7 -8 -20 -14 -29 -14 -11 0 -8 -5
9 -15 45 -26 52 -28 59 -19 3 5 17 15 31 21 25 12 25 12 -7 12 -35 1 -47 21
-14 21 11 0 23 5 26 10 3 6 5 9 3 8 -2 0 -17 -3 -35 -5z"/>
<path d="M297 159 c-22 -16 -39 -20 -92 -18 -36 1 -68 -1 -72 -4 -3 -4 20 -7
53 -7 82 -1 122 -33 72 -58 l-23 -11 22 0 c13 -1 27 8 33 19 6 11 18 20 28 20
16 1 16 2 0 14 -25 18 -23 29 10 48 18 12 21 18 11 18 -9 0 -28 -9 -42 -21z"/>
<path d="M1497 162 c-33 -22 -26 -32 22 -31 33 1 34 2 11 9 -17 5 -19 8 -7 9
9 1 17 5 17 11 0 5 7 6 17 3 11 -4 14 -3 9 5 -10 17 -37 15 -69 -6z"/>
<path d="M6235 164 c-12 -9 -30 -12 -46 -9 -41 9 -79 -35 -43 -49 11 -4 15 -2
11 8 -8 20 23 29 98 30 33 0 50 2 38 4 -13 2 -23 10 -23 18 0 18 -10 17 -35
-2z"/>
<path d="M1580 166 c0 -2 7 -6 15 -10 8 -3 15 -1 15 4 0 6 -7 10 -15 10 -8 0
-15 -2 -15 -4z"/>
<path d="M5760 155 c-6 -7 -33 -16 -58 -18 -35 -3 -33 -4 11 -2 39 1 63 7 74
18 15 15 16 17 1 17 -8 0 -21 -7 -28 -15z"/>
<path d="M1612 145 c-10 -12 -8 -16 9 -25 25 -14 30 -11 22 18 -6 25 -13 27
-31 7z"/>
<path d="M1695 150 c-18 -8 -17 -9 8 -9 15 -1 27 4 27 9 0 12 -8 12 -35 0z"/>
<path d="M1769 151 c-8 -3 -15 -15 -16 -26 -1 -11 0 -14 3 -7 3 6 21 12 40 12
19 0 34 4 34 9 0 11 -42 19 -61 12z"/>
<path d="M2040 139 c0 -5 5 -7 10 -4 6 3 10 8 10 11 0 2 -4 4 -10 4 -5 0 -10
-5 -10 -11z"/>
<path d="M6983 131 c-3 -11 -15 -22 -27 -24 -14 -3 -10 -5 12 -6 28 -1 32 2
32 24 0 30 -10 33 -17 6z"/>
<path d="M1903 133 c15 -2 37 -2 50 0 12 2 0 4 -28 4 -27 0 -38 -2 -22 -4z"/>
<path d="M5859 121 c-15 -17 -14 -19 18 -36 37 -20 38 -34 4 -51 -30 -15 -10
-28 27 -19 15 4 21 10 14 12 -10 4 -9 9 4 24 15 17 15 19 1 19 -8 0 -23 7 -32
16 -14 15 -14 18 6 35 l22 19 -24 -1 c-13 0 -31 -9 -40 -18z"/>
<path d="M2075 120 c3 -5 22 -10 41 -10 19 0 34 5 34 10 0 6 -18 10 -41 10
-24 0 -38 -4 -34 -10z"/>
<path d="M5455 120 c-9 -15 -1 -23 21 -18 15 3 16 4 1 16 -11 9 -17 10 -22 2z"/>
<path d="M5500 126 c0 -9 30 -14 35 -6 4 6 -3 10 -14 10 -12 0 -21 -2 -21 -4z"/>
<path d="M5570 120 c0 -5 7 -10 15 -10 8 0 18 0 22 -1 4 0 9 4 11 10 2 6 -8
11 -22 11 -14 0 -26 -4 -26 -10z"/>
<path d="M422 93 c-34 -28 -42 -53 -17 -53 13 0 14 -4 5 -20 -9 -17 -8 -20 8
-20 11 0 25 7 32 15 6 8 34 16 63 18 l52 3 -56 2 c-71 2 -96 24 -61 52 12 10
19 21 14 24 -5 3 -23 -6 -40 -21z"/>
<path d="M1393 108 c-13 -6 -23 -15 -23 -20 0 -4 -8 -8 -18 -8 -11 0 -29 -8
-41 -19 l-21 -18 42 -7 c41 -7 42 -8 23 -23 -19 -15 -18 -15 14 -9 37 7 52 16
36 23 -34 12 -39 22 -27 47 6 14 18 26 27 26 8 0 15 5 15 10 0 12 1 12 -27 -2z"/>
<path d="M1684 112 c-12 -1 -26 -14 -33 -28 -14 -31 -14 -30 9 -30 10 0 17 2
14 5 -2 2 6 15 18 28 24 26 23 30 -8 25z"/>
<path d="M1938 86 c-15 -13 -33 -26 -40 -29 -7 -2 -9 -8 -4 -13 5 -5 11 -4 13
4 6 15 55 16 70 1 6 -6 21 -9 34 -6 23 4 22 5 -9 16 -25 10 -31 17 -27 32 8
25 -4 23 -37 -5z"/>
<path d="M2226 90 c-10 -11 -38 -22 -62 -26 -49 -7 -70 -24 -30 -24 13 0 30
-2 38 -3 7 -2 10 -2 6 0 -20 11 -3 19 43 20 28 0 56 6 62 12 8 8 8 11 -1 11
-27 0 -10 19 21 23 25 3 22 4 -13 5 -32 1 -50 -5 -64 -18z"/>
<path d="M2358 103 c6 -2 18 -2 25 0 6 3 1 5 -13 5 -14 0 -19 -2 -12 -5z"/>
<path d="M4872 103 c-22 -4 -23 -5 -5 -18 23 -18 34 -19 31 -2 -2 8 18 14 62
18 l65 6 -65 0 c-36 0 -75 -2 -88 -4z"/>
<path d="M6813 103 c9 -2 23 -2 30 0 6 3 -1 5 -18 5 -16 0 -22 -2 -12 -5z"/>
<path d="M6869 105 c-9 -8 2 -65 12 -65 5 0 14 12 19 26 6 14 14 22 20 19 5
-3 10 -1 10 4 0 6 -6 11 -14 11 -8 0 -21 2 -28 5 -8 3 -16 3 -19 0z"/>
<path d="M0 89 c0 -5 5 -7 10 -4 5 3 10 8 10 11 0 2 -4 4 -10 4 -5 0 -10 -5
-10 -11z"/>
<path d="M2435 90 c3 -5 8 -10 11 -10 2 0 4 5 4 10 0 6 -5 10 -11 10 -5 0 -7
-4 -4 -10z"/>
<path d="M2565 90 c3 -5 8 -10 11 -10 2 0 4 5 4 10 0 6 -5 10 -11 10 -5 0 -7
-4 -4 -10z"/>
<path d="M5566 85 c-3 -9 0 -15 8 -15 7 0 19 -6 25 -14 19 -22 -29 -47 -82
-42 -23 3 -49 1 -57 -4 -10 -7 13 -10 66 -10 66 0 84 3 97 18 22 24 22 26 -8
57 -30 29 -41 31 -49 10z"/>
<path d="M6179 82 c7 -12 9 -27 6 -32 -7 -11 36 -24 62 -17 12 3 9 5 -9 6 -34
1 -36 18 -5 31 20 8 20 9 -8 9 -17 1 -37 7 -44 14 -11 10 -11 8 -2 -11z"/>
<path d="M6461 81 c-6 -10 -7 -21 -4 -25 12 -12 19 -6 21 19 2 30 -4 32 -17 6z"/>
<path d="M2470 80 c0 -5 -8 -10 -17 -10 -15 0 -14 -2 3 -15 27 -20 32 -19 32
10 0 14 -4 25 -9 25 -5 0 -9 -4 -9 -10z"/>
<path d="M2675 80 c3 -5 8 -10 11 -10 2 0 4 5 4 10 0 6 -5 10 -11 10 -5 0 -7
-4 -4 -10z"/>
<path d="M2773 76 c-10 -11 -6 -16 18 -27 22 -9 29 -17 26 -31 -4 -14 1 -18
24 -18 22 0 29 5 29 19 0 31 28 51 73 52 l42 1 -39 9 c-28 7 -42 6 -47 -2 -3
-6 -25 -13 -48 -16 -31 -4 -42 -1 -47 11 -7 19 -15 20 -31 2z"/>
<path d="M3140 80 c-12 -8 -10 -10 10 -10 18 0 21 -3 11 -9 -7 -5 -10 -14 -7
-20 4 -6 2 -11 -4 -11 -6 0 -9 -4 -6 -9 3 -4 17 -7 32 -5 30 3 46 14 21 14
-10 0 -17 8 -17 20 0 23 28 27 36 5 4 -8 10 -15 16 -15 5 0 6 5 3 10 -3 6 4
14 17 19 l23 10 -25 1 c-14 0 -41 3 -60 5 -19 3 -42 1 -50 -5z"/>
<path d="M3690 79 c-19 -4 39 -7 129 -8 90 0 161 2 157 6 -9 9 -238 10 -286 2z"/>
<path d="M4285 80 c-19 -8 -19 -9 3 -9 12 -1 22 4 22 9 0 6 -1 10 -2 9 -2 0
-12 -4 -23 -9z"/>
<path d="M4401 74 c0 -11 3 -14 6 -6 3 7 2 16 -1 19 -3 4 -6 -2 -5 -13z"/>
<path d="M2590 70 c-8 -5 -10 -10 -5 -10 6 0 17 5 25 10 8 5 11 10 5 10 -5 0
-17 -5 -25 -10z"/>
<path d="M3293 73 c9 -2 17 -9 17 -15 0 -5 -7 -7 -16 -4 -9 3 -12 2 -9 -5 6
-9 42 -4 55 8 8 7 -24 23 -45 22 -17 -1 -17 -2 -2 -6z"/>
<path d="M3538 73 c6 -2 18 -2 25 0 6 3 1 5 -13 5 -14 0 -19 -2 -12 -5z"/>
<path d="M4034 65 c-4 -8 -13 -15 -21 -15 -8 0 -11 -4 -8 -10 4 -6 -7 -10 -24
-10 -17 0 -31 -4 -31 -8 0 -4 14 -8 32 -7 25 0 36 7 51 33 10 17 16 32 13 32
-4 0 -9 -7 -12 -15z"/>
<path d="M4558 73 c7 -3 16 -2 19 1 4 3 -2 6 -13 5 -11 0 -14 -3 -6 -6z"/>
<path d="M3445 61 c-3 -6 -1 -11 5 -11 6 0 8 -4 5 -10 -3 -5 1 -10 10 -10 10
0 15 7 13 17 -4 20 -24 28 -33 14z"/>
<path d="M4998 63 c-22 -6 -23 -19 -3 -27 8 -3 15 -12 15 -21 0 -17 9 -19 30
-5 13 8 12 12 -8 25 -12 9 -20 21 -17 26 4 5 5 8 3 8 -2 -1 -11 -3 -20 -6z"/>
<path d="M5295 53 c16 -16 16 -18 -5 -35 l-22 -18 25 0 c14 0 27 6 30 14 3 8
18 16 34 19 l28 4 -26 2 c-15 0 -32 8 -39 16 -7 8 -19 15 -27 15 -12 0 -11 -3
2 -17z"/>
<path d="M6604 55 c-4 -8 -15 -15 -27 -15 -26 0 -20 -5 16 -14 19 -4 26 -3 22
4 -3 5 -1 10 4 10 6 0 11 7 11 15 0 8 -5 15 -10 15 -6 0 -13 -7 -16 -15z"/>
<path d="M3747 44 c-38 -21 -30 -25 26 -18 38 6 45 9 36 20 -14 18 -27 17 -62
-2z"/>
<path d="M4440 53 c0 -6 -12 -14 -26 -17 -21 -6 -24 -9 -13 -22 12 -15 17 -15
18 -1 0 5 8 15 18 22 10 7 15 17 10 21 -4 4 -7 3 -7 -3z"/>
<path d="M6342 48 c-39 -10 -41 -41 -3 -46 16 -3 21 0 16 9 -5 7 -1 17 10 25
25 19 17 23 -23 12z"/>
<path d="M6410 50 c0 -5 5 -10 10 -10 6 0 10 5 10 10 0 6 -4 10 -10 10 -5 0
-10 -4 -10 -10z"/>
<path d="M2527 44 c-4 -4 -7 -17 -7 -28 1 -19 1 -20 11 -3 11 19 8 43 -4 31z"/>
<path d="M4692 41 c-10 -6 -7 -12 12 -24 34 -22 36 -21 23 8 -13 27 -16 29
-35 16z"/>
<path d="M6518 43 c6 -2 18 -2 25 0 6 3 1 5 -13 5 -14 0 -19 -2 -12 -5z"/>
<path d="M113 33 c-12 -2 -27 -11 -33 -19 -10 -12 -8 -14 14 -14 14 0 26 4 26
8 0 5 10 14 23 20 22 11 10 13 -30 5z"/>
<path d="M1531 31 c-21 -14 -3 -31 32 -31 28 1 30 2 13 11 -15 9 -16 13 -5 20
11 7 9 9 -6 9 -11 0 -26 -4 -34 -9z"/>
<path d="M1708 33 c7 -3 16 -2 19 1 4 3 -2 6 -13 5 -11 0 -14 -3 -6 -6z"/>
<path d="M1758 33 c7 -3 16 -2 19 1 4 3 -2 6 -13 5 -11 0 -14 -3 -6 -6z"/>
<path d="M1820 30 c36 -12 62 -12 55 0 -3 6 -23 10 -43 9 -33 -1 -34 -2 -12
-9z"/>
<path d="M3272 28 c2 -9 -6 -12 -24 -10 -14 1 -29 -2 -33 -8 -4 -6 28 -10 92
-10 75 0 104 4 119 16 18 15 17 15 -11 8 -40 -10 -135 -12 -129 -3 2 4 0 11
-6 14 -6 4 -9 1 -8 -7z"/>
<path d="M3901 29 c-13 -5 -33 -7 -45 -3 -20 6 -20 5 -4 -12 14 -14 20 -15 32
-5 9 7 22 11 30 8 8 -3 17 1 20 9 6 16 1 17 -33 3z"/>
<path d="M4140 29 c0 -5 5 -7 10 -4 6 3 10 8 10 11 0 2 -4 4 -10 4 -5 0 -10
-5 -10 -11z"/>
<path d="M5678 33 c6 -2 18 -2 25 0 6 3 1 5 -13 5 -14 0 -19 -2 -12 -5z"/>
<path d="M6138 33 c6 -2 18 -2 25 0 6 3 1 5 -13 5 -14 0 -19 -2 -12 -5z"/>
<path d="M6920 20 c11 -11 32 -20 47 -20 27 0 27 1 -10 20 -47 26 -63 26 -37
0z"/>
<path d="M2210 15 c0 -8 5 -15 10 -15 6 0 10 7 10 15 0 8 -4 15 -10 15 -5 0
-10 -7 -10 -15z"/>
<path d="M6036 15 c-7 -20 27 -20 44 0 11 13 9 15 -13 15 -14 0 -27 -7 -31
-15z"/>
<path d="M1210 9 c0 -11 27 -12 34 -1 2 4 -4 9 -15 9 -10 1 -19 -2 -19 -8z"/>
<path d="M5755 10 c-4 -6 7 -10 25 -10 18 0 29 4 25 10 -3 6 -15 10 -25 10
-10 0 -22 -4 -25 -10z"/>
<path d="M1638 3 c6 -2 18 -2 25 0 6 3 1 5 -13 5 -14 0 -19 -2 -12 -5z"/>
<path d="M1893 3 c9 -2 23 -2 30 0 6 3 -1 5 -18 5 -16 0 -22 -2 -12 -5z"/>
<path d="M3118 3 c7 -3 16 -2 19 1 4 3 -2 6 -13 5 -11 0 -14 -3 -6 -6z"/>
<path d="M5098 3 c6 -2 18 -2 25 0 6 3 1 5 -13 5 -14 0 -19 -2 -12 -5z"/>
<path d="M5963 3 c9 -2 25 -2 35 0 9 3 1 5 -18 5 -19 0 -27 -2 -17 -5z"/>
</g>
</svg>
