<?xml version="1.0" standalone="no"?>
<!DOCTYPE svg PUBLIC "-//W3C//DTD SVG 20010904//EN"
 "http://www.w3.org/TR/2001/REC-SVG-20010904/DTD/svg10.dtd">
<svg version="1.0" xmlns="http://www.w3.org/2000/svg"
 width="500.000000pt" height="500.000000pt" viewBox="0 0 500.000000 500.000000"
 preserveAspectRatio="xMidYMid meet">
 <style type="text/css">
	.st0{opacity:0.5;}
	.st1{fill:url(#SVGID_1_);}
	.st2{fill:#F5F5F5;}
	.st3{fill:#333333;}
	.st4{fill:#4E73DF;}
	.st5{opacity:0.1;enable-background:new    ;}
	.st6{fill:#BE7C5E;}
</style>

<g transform="translate(0.000000,500.000000) scale(0.100000,-0.100000)"
fill="#000000" stroke="none">
<path d="M2323 4070 c-642 -68 -1203 -527 -1407 -1150 -64 -196 -71 -249 -71
-515 0 -215 2 -251 23 -344 84 -373 271 -695 542 -929 315 -271 691 -412 1103
-412 440 0 839 158 1158 458 723 680 698 1836 -55 2493 -349 305 -815 449
-1293 399z m482 -40 c438 -74 858 -354 1102 -734 107 -165 191 -374 233 -571
31 -145 38 -412 16 -563 -97 -654 -584 -1198 -1221 -1362 -60 -16 -146 -34
-190 -41 -113 -17 -370 -15 -485 5 -748 124 -1303 709 -1390 1461 -99 868 522
1676 1390 1810 181 28 357 26 545 -5z"/>
<path d="M2450 3806 c0 -9 5 -16 11 -16 9 0 10 -30 6 -107 -4 -83 -8 -108 -21
-115 -31 -17 -16 -28 39 -28 30 0 55 5 55 10 0 6 -6 10 -14 10 -24 0 -28 17
-20 99 l6 79 53 -101 c50 -98 53 -102 88 -105 l35 -3 7 120 c6 92 11 121 21
121 23 0 16 27 -8 34 -41 10 -78 7 -78 -8 0 -8 7 -16 15 -20 11 -4 15 -23 15
-80 0 -41 -3 -81 -6 -89 -3 -10 -27 26 -62 96 l-57 112 -42 3 c-34 2 -43 0
-43 -12z"/>
<path d="M2222 3784 c-30 -7 -56 -15 -59 -17 -9 -10 7 -26 21 -21 10 4 19 -23
36 -102 21 -99 21 -108 6 -119 -36 -27 -15 -31 64 -14 31 7 50 16 50 25 0 8
-8 14 -18 14 -15 0 -22 18 -40 102 -20 95 -20 102 -4 114 30 22 1 32 -56 18z"/>
<path d="M3070 3631 c-100 -52 -115 -188 -28 -241 69 -42 149 -18 195 57 43
71 19 159 -52 189 -46 19 -73 18 -115 -5z m111 -21 c32 -18 26 -88 -13 -146
-40 -58 -57 -69 -91 -60 -56 14 -44 107 22 176 40 42 51 46 82 30z"/>
<path d="M1720 3570 c-45 -30 -59 -55 -30 -55 19 0 132 -165 125 -183 -12 -33
11 -27 85 20 80 51 89 63 70 99 -16 29 -40 24 -40 -9 0 -28 -26 -62 -47 -62
-5 0 -36 39 -67 86 -47 70 -55 88 -45 100 26 31 -7 33 -51 4z"/>
<path d="M3426 3441 c-4 -5 -4 -15 -1 -23 6 -15 -138 -142 -164 -144 -9 -1
-20 -2 -26 -3 -5 0 8 -19 30 -41 38 -39 64 -45 45 -10 -8 16 0 27 52 74 34 30
63 54 64 53 1 -1 -14 -50 -33 -108 -34 -103 -34 -108 -18 -133 10 -14 21 -26
25 -26 4 0 48 36 97 79 59 52 94 76 100 70 6 -6 14 -5 21 4 9 11 4 21 -22 46
-35 34 -64 35 -47 3 7 -14 -2 -28 -47 -68 -32 -28 -63 -54 -70 -58 -6 -4 6 44
28 106 22 62 40 116 40 120 0 10 -51 68 -60 68 -5 0 -11 -4 -14 -9z"/>
<path d="M1446 3313 c-29 -34 -36 -47 -26 -53 7 -4 18 -6 25 -4 16 7 160 -122
160 -143 0 -33 23 -19 84 51 l60 70 -20 28 c-25 34 -39 28 -39 -15 0 -18 -8
-42 -18 -54 l-17 -22 -83 71 c-55 48 -79 75 -72 82 13 13 13 23 -3 29 -7 2
-30 -16 -51 -40z"/>
<path d="M2757 3244 c4 -11 -2 -23 -18 -35 -13 -10 -19 -19 -12 -19 6 0 15 5
18 10 4 6 11 7 17 4 7 -4 8 -2 4 4 -8 13 12 16 31 4 21 -13 22 -98 1 -86 -10
6 -10 4 -2 -7 6 -8 14 -35 18 -60 6 -43 5 -49 -21 -69 -15 -12 -28 -32 -28
-43 0 -16 -5 -21 -20 -19 -16 2 -17 1 -5 -7 13 -9 12 -11 -3 -11 -11 0 -15 -5
-11 -11 3 -6 2 -14 -3 -18 -6 -3 -13 -26 -17 -51 -4 -30 -3 -40 3 -30 6 8 13
12 16 8 4 -3 -9 -26 -27 -50 -36 -47 -72 -123 -83 -173 -3 -16 5 -2 18 31 30
79 72 149 99 168 19 14 23 14 34 -2 12 -16 13 -16 14 3 0 17 2 18 11 5 9 -13
10 -13 6 0 -2 8 -19 17 -38 20 -43 7 -41 24 12 102 21 32 39 62 39 66 0 15 46
53 54 45 4 -5 6 -2 4 6 -1 8 5 17 14 19 33 7 88 -80 79 -126 -1 -7 2 -11 8
-10 5 2 16 -5 23 -15 13 -17 14 -17 15 3 1 11 -2 18 -7 15 -5 -3 -12 0 -15 6
-13 21 2 19 48 -6 26 -13 47 -20 47 -16 0 5 -20 19 -44 31 -52 25 -68 42 -61
64 3 9 7 23 10 31 4 14 8 14 32 -2 16 -10 31 -22 35 -28 18 -24 6 12 -19 57
l-28 51 -17 -39 c-10 -22 -18 -48 -18 -58 0 -18 -2 -18 -25 4 -26 24 -34 46
-12 34 6 -4 8 -3 4 1 -4 5 -20 11 -34 13 -15 2 -36 8 -47 14 -17 9 -19 8 -8
-3 6 -7 12 -17 12 -21 0 -13 -30 -9 -31 5 0 6 -2 22 -5 34 -5 27 26 47 62 40
13 -2 21 -1 19 3 -3 4 10 10 28 14 l32 6 -30 26 c-36 30 -143 84 -167 84 -12
0 -15 -5 -11 -16z"/>
<path d="M2089 3182 c-6 -15 -47 -119 -91 -232 -103 -262 -198 -510 -198 -516
0 -2 23 -18 50 -35 28 -17 50 -35 50 -40 0 -5 -27 -9 -60 -9 -57 0 -60 -1 -60
-24 0 -14 5 -28 10 -31 6 -4 10 -77 10 -186 l0 -179 50 0 50 0 0 -65 0 -65 55
0 55 0 0 65 0 65 178 0 c125 0 182 -4 190 -12 7 -7 12 -36 12 -65 l0 -53 55 0
54 0 4 68 3 67 2 -75 2 -76 70 -52 c38 -28 72 -52 75 -52 3 0 5 122 5 270 0
178 3 270 10 270 6 0 61 -38 123 -84 l112 -85 3 212 c2 180 0 214 -13 223 -17
13 -20 40 -5 49 5 3 6 13 3 22 -5 12 -3 14 7 8 8 -5 11 -4 6 3 -3 5 0 13 6 15
10 4 10 6 1 6 -7 1 -13 8 -13 16 0 9 6 12 17 8 11 -4 14 -3 9 5 -4 7 -3 12 3
12 5 0 16 3 25 6 11 4 16 1 16 -10 0 -9 -4 -16 -8 -16 -19 0 -4 -40 25 -64 16
-14 43 -53 59 -88 26 -56 29 -74 29 -158 0 -88 -3 -101 -33 -162 -50 -102
-156 -182 -261 -197 l-46 -6 -3 -71 -3 -71 53 8 c73 11 107 22 178 60 71 38
169 137 205 209 92 182 64 412 -69 566 l-35 41 -71 -19 c-40 -11 -74 -18 -76
-15 -2 2 5 30 16 62 11 32 20 59 20 60 0 1 -14 2 -32 3 -17 0 -35 8 -40 16
-11 20 -32 21 -25 2 3 -8 -1 -17 -9 -20 -22 -8 -22 -9 -17 18 4 18 13 26 32
29 15 2 8 5 -19 5 -25 1 -40 -2 -33 -6 20 -13 -24 -142 -48 -142 -10 0 -23 -9
-29 -20 -15 -28 3 -25 36 5 17 16 31 22 37 16 12 -12 -1 -33 -15 -25 -6 4 -8
3 -5 -3 8 -13 -76 -95 -94 -91 -8 2 -13 -3 -12 -9 2 -7 -1 -13 -6 -13 -11 0
-77 -103 -120 -187 -29 -59 -31 -70 -37 -217 l-7 -156 -29 0 c-25 0 -28 3 -28
33 l0 32 -26 -45 c-31 -54 -39 -63 -30 -32 5 13 3 22 -3 22 -6 0 -11 -5 -11
-12 0 -6 -3 -9 -6 -6 -3 4 1 19 9 34 9 17 17 23 21 15 4 -6 2 -11 -4 -11 -6 0
-8 -5 -4 -11 5 -8 10 -6 16 5 7 12 5 23 -4 34 -11 15 -11 16 3 4 14 -11 19 -6
37 35 11 26 19 49 17 51 -8 8 -26 -11 -21 -23 3 -8 -2 -11 -14 -8 -19 5 -17
33 2 33 5 0 6 5 2 11 -4 8 -12 2 -21 -15 -8 -14 -11 -31 -8 -36 3 -6 2 -10 -3
-10 -5 0 -19 -22 -32 -50 -13 -27 -25 -48 -27 -46 -2 2 10 34 26 71 17 38 28
71 25 74 -4 3 -9 2 -11 -4 -2 -5 -19 -39 -36 -75 l-32 -65 -237 -3 -238 -2 0
170 0 170 30 0 30 0 0 -130 0 -130 133 0 c127 1 131 1 111 18 -11 10 -19 23
-18 30 1 7 0 8 -3 2 -2 -6 -43 -10 -94 -10 l-89 0 0 35 0 35 80 0 c73 0 80 2
80 20 0 17 -8 19 -77 22 l-78 3 -3 68 c-2 37 1 67 5 67 4 0 43 -20 87 -45 43
-25 80 -45 83 -45 2 0 16 14 30 30 14 17 42 39 63 50 43 22 82 65 112 124 21
42 92 244 82 233 -3 -3 -61 -92 -128 -199 -98 -155 -126 -192 -141 -190 -43 7
-183 82 -228 123 -36 31 -48 48 -44 63 4 18 202 541 227 601 10 23 12 17 14
-39 1 -53 37 -81 83 -65 18 6 35 19 38 30 8 25 19 24 83 -6 30 -14 55 -25 57
-25 2 0 5 25 7 55 l3 55 -50 21 c-27 12 -90 39 -138 60 l-88 38 -10 -27z m828
-438 c3 -9 -1 -40 -11 -68 -9 -29 -16 -62 -16 -74 0 -12 -8 -26 -17 -31 -11
-6 -13 -11 -5 -11 8 0 10 -9 6 -27 -16 -66 -42 -68 -95 -11 l-38 42 25 27 c15
15 31 26 38 25 6 -2 8 -1 4 1 -4 3 -2 15 4 28 8 17 8 28 0 37 -5 7 -8 25 -5
40 4 20 12 28 32 31 55 8 72 7 78 -9z m-171 -205 c3 -6 -7 -25 -24 -42 -26
-26 -33 -29 -47 -17 -14 12 -13 16 11 42 29 30 48 35 60 17z m14 -124 c0 -19
-3 -35 -6 -35 -3 0 -22 12 -41 28 l-36 27 29 6 c52 12 54 11 54 -26z m-790
-530 c0 -33 -4 -45 -15 -45 -11 0 -15 12 -15 45 0 33 4 45 15 45 11 0 15 -12
15 -45z m490 0 c0 -33 -4 -45 -15 -45 -8 0 -15 9 -15 21 0 11 5 17 10 14 6 -4
10 7 10 24 0 17 2 31 5 31 3 0 5 -20 5 -45z"/>
<path d="M2835 2730 c-3 -5 -2 -10 4 -10 5 0 13 5 16 10 3 6 2 10 -4 10 -5 0
-13 -4 -16 -10z"/>
<path d="M2840 2670 c0 -5 7 -10 16 -10 8 0 12 5 9 10 -3 6 -10 10 -16 10 -5
0 -9 -4 -9 -10z"/>
<path d="M2830 2630 c0 -6 7 -10 15 -10 8 0 15 2 15 4 0 2 -7 6 -15 10 -8 3
-15 1 -15 -4z"/>
<path d="M2800 2550 c0 -5 5 -10 10 -10 6 0 10 5 10 10 0 6 -4 10 -10 10 -5 0
-10 -4 -10 -10z"/>
<path d="M2500 3194 c-75 -32 -110 -86 -110 -167 0 -44 5 -62 30 -95 31 -44
64 -67 80 -57 15 9 12 25 -4 25 -15 0 -66 38 -66 49 0 8 91 61 104 61 3 0 6
-30 6 -66 0 -41 4 -63 10 -59 6 3 14 -3 18 -14 7 -20 7 -20 58 3 67 31 97 74
102 146 6 84 -39 152 -117 179 -44 14 -68 13 -111 -5z m27 -76 c6 -35 9 -64 8
-66 -6 -7 -100 60 -100 70 0 12 60 58 75 58 3 0 11 -28 17 -62z m102 41 l34
-20 -34 -30 c-56 -49 -68 -53 -73 -27 -19 93 -19 98 11 98 15 0 43 -9 62 -21z
m67 -84 c16 -38 18 -64 6 -82 -6 -10 -21 -8 -65 10 -31 12 -57 25 -57 29 0 5
90 77 98 78 2 0 10 -16 18 -35z m-216 -9 l54 -34 -59 -26 c-63 -29 -75 -25
-75 24 0 32 10 70 19 70 3 0 31 -16 61 -34z m148 -94 l53 -28 -26 -26 c-14
-14 -39 -28 -55 -30 -25 -4 -30 -1 -30 16 0 12 -3 38 -6 59 -4 20 -3 37 2 37
5 -1 33 -13 62 -28z"/>
<path d="M2750 3084 c0 -9 5 -14 12 -12 18 6 21 28 4 28 -9 0 -16 -7 -16 -16z"/>
<path d="M2896 3091 c-16 -6 -17 -9 -6 -16 9 -5 15 -4 18 3 2 7 9 9 14 6 7 -4
8 -2 4 4 -4 7 -8 12 -9 11 -1 0 -11 -4 -21 -8z"/>
<path d="M3700 3073 c0 -25 -197 -113 -210 -93 -4 7 -12 10 -18 6 -7 -4 5 -42
33 -104 41 -92 44 -97 71 -94 35 4 36 5 28 26 -3 9 -15 16 -25 16 -12 0 -26
15 -39 40 l-20 39 47 21 c36 16 48 18 55 8 10 -17 10 -32 -2 -44 -5 -5 -6 -15
-1 -22 7 -11 15 -11 45 2 42 17 46 33 12 45 -43 17 -40 40 7 61 52 24 62 15
60 -51 -1 -51 8 -59 39 -35 16 12 15 19 -22 102 -38 87 -60 115 -60 77z"/>
<path d="M1254 3003 c-6 -24 3 -36 84 -115 51 -49 92 -96 92 -104 0 -27 26
-14 43 21 23 49 22 58 -7 51 -34 -8 -38 3 -16 52 18 41 50 58 50 27 0 -32 26
-12 48 37 24 54 22 69 -6 51 -12 -7 -45 -8 -102 -2 -47 4 -106 8 -132 8 -43 1
-48 -1 -54 -26z m168 -42 c15 -1 16 -5 6 -28 -20 -47 -26 -47 -70 -8 -24 21
-44 42 -46 45 -1 4 19 3 45 -1 26 -4 56 -8 65 -8z"/>
<path d="M2247 2989 c-51 -30 -35 -109 22 -109 56 0 83 73 39 104 -26 19 -36
19 -61 5z"/>
<path d="M2890 2991 c0 -5 7 -14 15 -21 16 -14 18 -10 9 14 -6 17 -24 22 -24
7z"/>
<path d="M2826 2924 c-34 -34 -7 -77 44 -72 28 2 36 8 38 26 4 28 -23 62 -49
62 -10 0 -25 -7 -33 -16z"/>
<path d="M2675 2871 c-3 -5 -1 -12 4 -15 5 -3 11 1 15 9 6 16 -9 21 -19 6z"/>
<path d="M2503 2848 c-15 -20 -25 -38 -20 -38 3 0 12 11 21 25 17 26 16 35 -1
13z"/>
<path d="M2776 2851 c-3 -5 1 -12 10 -15 25 -10 34 -7 34 9 0 16 -35 21 -44 6z"/>
<path d="M2202 2773 l3 -78 89 3 c49 1 91 4 93 6 2 1 0 34 -4 72 l-8 69 -88 3
-88 3 3 -78z"/>
<path d="M2605 2839 c-4 -6 -14 -8 -22 -5 -8 3 -11 1 -8 -4 8 -14 18 -13 41 5
10 8 14 15 7 15 -6 0 -15 -5 -18 -11z"/>
<path d="M2594 2806 c-30 -15 -48 -34 -64 -66 -12 -25 -51 -96 -87 -158 -98
-168 -112 -210 -113 -315 0 -101 -10 -126 -69 -180 -36 -32 -38 -37 -19 -37
12 0 30 -7 40 -17 10 -9 20 -14 22 -12 2 2 19 42 39 89 26 60 33 86 25 91 -32
20 -24 171 13 252 l23 47 28 -27 c26 -25 28 -32 28 -107 l0 -81 20 25 c17 21
20 37 18 97 -2 39 0 69 5 66 4 -2 7 -28 8 -56 l1 -52 31 65 c27 56 32 77 33
150 1 79 3 85 22 85 37 1 34 12 -12 46 -50 36 -54 45 -11 29 23 -9 32 -7 48 7
19 18 20 17 8 -5 -12 -22 -11 -23 8 -12 21 11 30 60 12 60 -5 0 -11 8 -13 18
-3 18 -5 18 -44 -2z m-4 -113 c0 -12 -43 -53 -56 -53 -6 0 -15 -11 -18 -25 -4
-14 -14 -25 -22 -25 -9 0 -14 6 -11 13 34 86 40 95 53 90 9 -3 14 1 14 11 0
14 4 15 20 6 11 -6 20 -14 20 -17z m-28 -103 c4 -24 2 -27 -9 -18 -10 8 -12 8
-8 -3 3 -9 -11 -24 -37 -41 -40 -25 -44 -26 -60 -11 -18 16 -17 17 4 40 23 25
53 30 62 11 3 -7 4 -4 3 7 -1 12 3 19 11 18 6 -2 11 0 11 5 -1 4 -1 13 0 20 2
23 19 3 23 -28z"/>
<path d="M2930 2810 c-25 -4 -36 -8 -25 -10 11 -1 26 -1 34 0 8 1 18 -4 22
-12 7 -10 9 -10 9 0 0 7 10 17 23 22 20 8 20 9 2 8 -11 -1 -40 -4 -65 -8z"/>
<path d="M3041 2793 c-20 -13 -27 -14 -44 -3 -14 9 -11 0 12 -29 18 -22 36
-43 41 -46 9 -6 30 48 30 76 0 23 -9 24 -39 2z"/>
<path d="M2042 2769 l-53 -30 31 -57 c18 -31 36 -61 41 -66 7 -8 109 49 109
61 0 10 -65 123 -70 123 -3 0 -29 -14 -58 -31z"/>
<path d="M2436 2725 c-9 -26 -7 -32 5 -12 6 10 9 21 6 23 -2 3 -7 -2 -11 -11z"/>
<path d="M2755 2720 c-3 -5 -2 -10 4 -10 5 0 13 5 16 10 3 6 2 10 -4 10 -5 0
-13 -4 -16 -10z"/>
<path d="M1951 2593 c-17 -60 -13 -81 22 -119 27 -29 41 -36 90 -43 43 -6 57
-5 57 5 0 13 -141 192 -152 193 -4 1 -12 -16 -17 -36z m52 -54 c-32 -13 -43
-9 -43 14 0 35 11 40 37 15 22 -21 23 -23 6 -29z m23 -54 l-7 -36 -31 22 -31
22 34 17 c19 9 36 15 38 14 2 -2 0 -19 -3 -39z m52 -5 c28 -38 28 -40 -8 -40
-28 0 -30 3 -30 35 0 43 10 44 38 5z"/>
<path d="M2597 2624 c-4 -4 -7 -14 -7 -23 0 -11 3 -12 11 -4 6 6 10 16 7 23
-2 6 -7 8 -11 4z"/>
<path d="M2148 2573 c-48 -4 -48 -4 -48 -41 1 -61 19 -76 83 -68 l54 7 -8 42
c-4 23 -8 48 -9 55 0 6 -6 11 -12 10 -7 -1 -34 -3 -60 -5z"/>
<path d="M2575 2473 c-36 -97 -88 -184 -131 -219 -23 -19 -47 -49 -53 -65 -6
-18 -6 -27 -1 -24 6 4 10 13 10 21 0 8 24 38 54 67 29 28 65 76 80 104 33 67
68 154 63 160 -2 2 -12 -18 -22 -44z"/>
<path d="M2286 2372 c-36 -42 -36 -44 -7 -17 28 25 58 66 49 65 -2 -1 -21 -22
-42 -48z"/>
<path d="M2182 2293 c-24 -24 -24 -25 -2 -8 42 33 44 35 37 35 -4 0 -19 -12
-35 -27z"/>
<path d="M2112 2150 c0 -14 2 -19 5 -12 2 6 2 18 0 25 -3 6 -5 1 -5 -13z"/>
<path d="M2362 2125 c-17 -37 -14 -45 4 -12 9 16 14 31 11 33 -2 2 -9 -7 -15
-21z"/>
<path d="M2477 2080 c-18 -29 -18 -30 2 -30 17 0 21 6 21 30 0 17 -1 30 -3 30
-1 0 -11 -13 -20 -30z"/>
<path d="M2326 2040 c-22 -56 -19 -65 5 -11 11 24 18 46 15 48 -2 2 -11 -14
-20 -37z"/>
<path d="M2178 2043 c6 -2 18 -2 25 0 6 3 1 5 -13 5 -14 0 -19 -2 -12 -5z"/>
<path d="M1334 1358 c-4 -6 2 -19 14 -29 28 -22 28 -29 0 -30 -19 -1 -20 -2
-4 -6 10 -3 23 0 30 7 8 9 5 16 -11 30 -28 22 -28 27 -5 33 15 4 15 5 0 6 -9
0 -20 -4 -24 -11z"/>
<path d="M1414 1357 c-3 -8 -4 -28 -1 -44 4 -26 4 -25 6 6 1 33 2 34 17 15 14
-18 14 -18 3 6 -16 34 -18 35 -25 17z"/>
<path d="M1458 1334 c-2 -19 0 -37 4 -40 4 -3 8 13 8 35 0 51 -6 53 -12 5z"/>
<path d="M1520 1360 c0 -5 5 -10 10 -10 6 0 10 5 10 10 0 6 -4 10 -10 10 -5 0
-10 -4 -10 -10z"/>
<path d="M1600 1356 c-20 -25 -8 -61 20 -63 25 -3 25 -3 3 7 -27 11 -30 45 -5
59 9 6 12 11 6 11 -6 0 -17 -7 -24 -14z"/>
<path d="M1682 1330 c-1 -40 0 -42 9 -20 l10 25 14 -25 c8 -14 14 -21 15 -17
0 5 -5 17 -11 28 -8 15 -7 25 3 37 10 14 8 13 -9 -1 -21 -18 -21 -18 -26 0 -3
10 -5 -2 -5 -27z"/>
<path d="M1773 1354 c-4 -10 0 -20 10 -26 22 -12 22 -25 0 -31 -14 -4 -12 -5
5 -6 27 -1 30 26 5 45 -16 12 -16 15 -3 24 11 7 11 10 2 10 -7 0 -15 -7 -19
-16z"/>
<path d="M1940 1329 c0 -36 2 -40 23 -37 42 6 33 77 -10 78 -8 0 -13 -15 -13
-41z m35 1 c0 -13 -6 -25 -12 -27 -9 -3 -13 6 -13 27 0 21 4 30 13 28 6 -3 12
-15 12 -28z"/>
<path d="M2031 1328 c1 -24 3 -35 6 -25 6 21 19 22 31 1 7 -12 9 -6 8 22 -1
32 -5 40 -23 42 -21 3 -23 0 -22 -40z m39 17 c0 -8 -7 -15 -15 -15 -8 0 -15 7
-15 15 0 8 7 15 15 15 8 0 15 -7 15 -15z"/>
<path d="M2123 1330 c0 -25 2 -35 4 -22 2 12 2 32 0 45 -2 12 -4 2 -4 -23z"/>
<path d="M2171 1328 c2 -33 3 -36 6 -14 l5 29 19 -29 c10 -16 19 -26 19 -22 0
9 -41 78 -46 78 -2 0 -3 -19 -3 -42z"/>
<path d="M2293 1353 c-10 -16 -13 -16 -22 -3 -8 11 -11 6 -10 -25 0 -38 0 -39
13 -17 l13 24 17 -24 17 -23 -11 23 c-6 12 -8 32 -5 42 8 25 4 25 -12 3z"/>
<path d="M2354 1358 c-4 -6 2 -19 14 -29 28 -22 28 -29 0 -30 -19 -1 -20 -2
-4 -6 10 -3 23 0 30 7 8 9 5 16 -11 30 -28 22 -28 27 -5 33 15 4 15 5 0 6 -9
0 -20 -4 -24 -11z"/>
<path d="M2480 1328 c0 -23 3 -38 7 -35 3 4 6 20 5 36 0 20 5 31 16 34 12 3
10 5 -5 6 -20 1 -23 -4 -23 -41z"/>
<path d="M2564 1356 c-11 -28 0 -61 20 -61 27 0 44 30 30 53 -15 22 -43 27
-50 8z m41 -26 c0 -16 -6 -26 -17 -28 -14 -3 -18 3 -18 28 0 25 4 31 18 28 11
-2 17 -12 17 -28z"/>
<path d="M2660 1355 c-26 -31 13 -82 44 -56 19 16 21 42 4 59 -16 16 -33 15
-48 -3z m45 -25 c0 -29 -32 -41 -41 -16 -9 24 4 48 23 44 12 -2 18 -12 18 -28z"/>
<path d="M2760 1330 c0 -40 5 -45 34 -34 31 12 13 74 -21 74 -8 0 -13 -14 -13
-40z m35 0 c0 -13 -6 -25 -12 -27 -9 -3 -13 6 -13 27 0 21 4 30 13 28 6 -3 12
-15 12 -28z"/>
<path d="M2901 1328 c1 -24 3 -35 6 -25 6 21 12 22 27 2 9 -12 11 -9 12 17 2
33 -9 48 -33 48 -9 0 -13 -14 -12 -42z m31 17 c0 -5 -5 -11 -11 -13 -6 -2 -11
4 -11 13 0 9 5 15 11 13 6 -2 11 -8 11 -13z"/>
<path d="M2992 1358 c-16 -16 -15 -43 3 -58 17 -14 45 -7 45 12 0 10 -3 9 -9
-1 -12 -19 -41 -6 -41 19 0 25 28 38 42 19 8 -12 9 -11 5 1 -5 19 -29 24 -45
8z"/>
<path d="M3092 1361 c-8 -5 -12 -21 -10 -37 2 -23 8 -29 28 -29 20 0 26 6 28
29 3 25 -10 46 -28 46 -3 0 -11 -4 -18 -9z m33 -31 c0 -13 -6 -25 -12 -27 -16
-6 -27 21 -19 43 9 23 31 11 31 -16z"/>
<path d="M3181 1330 l1 -45 8 35 c5 20 5 39 -1 45 -5 5 -9 -8 -8 -35z"/>
<path d="M3226 1354 c-4 -9 -4 -19 -1 -22 2 -3 7 3 11 12 4 9 4 19 1 22 -2 3
-7 -3 -11 -12z"/>
<path d="M3337 1363 c-4 -3 -6 -22 -6 -42 1 -20 3 -28 6 -18 2 9 11 17 18 17
8 0 16 4 19 9 4 5 -3 7 -14 4 -14 -4 -20 0 -20 12 0 12 6 16 20 12 11 -3 18
-1 14 4 -6 11 -28 12 -37 2z"/>
<path d="M3424 1330 c1 -28 5 -35 20 -35 11 0 20 6 22 13 1 7 0 8 -3 2 -11
-22 -32 -9 -36 23 -4 32 -4 32 -3 -3z"/>
<path d="M3594 1358 c-4 -6 2 -19 14 -29 28 -22 28 -29 0 -30 -19 -1 -20 -2
-4 -6 10 -3 23 0 30 7 8 9 5 16 -11 30 -28 22 -28 27 -5 33 15 4 15 5 0 6 -9
0 -20 -4 -24 -11z"/>
<path d="M3677 1363 c-4 -3 -7 -21 -7 -40 0 -30 3 -33 28 -32 20 1 22 3 6 6
-15 3 -21 12 -21 33 0 21 6 30 21 33 l21 4 -21 2 c-11 0 -24 -2 -27 -6z"/>
<path d="M3512 1328 c-2 -35 0 -38 26 -37 22 1 23 2 5 6 -16 3 -23 13 -26 36
-4 31 -4 31 -5 -5z"/>
<path d="M1507 1319 c-4 -13 -4 -25 -2 -28 3 -2 5 1 5 7 0 7 9 12 20 12 11 0
20 -5 20 -12 0 -6 2 -9 5 -7 2 3 2 15 -2 28 -4 17 -8 19 -14 9 -8 -11 -10 -11
-18 0 -6 10 -10 8 -14 -9z"/>
<path d="M3200 1321 c0 -5 5 -13 10 -16 6 -3 10 -2 10 4 0 5 -4 13 -10 16 -5
3 -10 2 -10 -4z"/>
</g>
</svg>
